%TF.GenerationSoftware,KiCad,Pcbnew,10.0.3-2.fc44*%
%TF.CreationDate,2026-06-26T15:21:10-07:00*%
%TF.ProjectId,eeg-adapter-revb,6565672d-6164-4617-9074-65722d726576,rev?*%
%TF.SameCoordinates,Original*%
%TF.FileFunction,Soldermask,Top*%
%TF.FilePolarity,Negative*%
%FSLAX46Y46*%
G04 Gerber Fmt 4.6, Leading zero omitted, Abs format (unit mm)*
G04 Created by KiCad (PCBNEW 10.0.3-2.fc44) date 2026-06-26 15:21:10*
%MOMM*%
%LPD*%
G01*
G04 APERTURE LIST*
G04 Aperture macros list*
%AMRoundRect*
0 Rectangle with rounded corners*
0 $1 Rounding radius*
0 $2 $3 $4 $5 $6 $7 $8 $9 X,Y pos of 4 corners*
0 Add a 4 corners polygon primitive as box body*
4,1,4,$2,$3,$4,$5,$6,$7,$8,$9,$2,$3,0*
0 Add four circle primitives for the rounded corners*
1,1,$1+$1,$2,$3*
1,1,$1+$1,$4,$5*
1,1,$1+$1,$6,$7*
1,1,$1+$1,$8,$9*
0 Add four rect primitives between the rounded corners*
20,1,$1+$1,$2,$3,$4,$5,0*
20,1,$1+$1,$4,$5,$6,$7,0*
20,1,$1+$1,$6,$7,$8,$9,0*
20,1,$1+$1,$8,$9,$2,$3,0*%
%AMFreePoly0*
4,1,17,0.319989,0.721721,0.721721,0.319989,0.736600,0.284068,0.736600,-0.284068,0.721721,-0.319989,0.319989,-0.721721,0.284068,-0.736600,-0.284068,-0.736600,-0.319989,-0.721721,-0.721721,-0.319989,-0.736600,-0.284068,-0.736600,0.284068,-0.721721,0.319989,-0.319989,0.721721,-0.284068,0.736600,0.284068,0.736600,0.319989,0.721721,0.319989,0.721721,$1*%
G04 Aperture macros list end*
%ADD10FreePoly0,90.000000*%
%ADD11C,1.300000*%
%ADD12RoundRect,0.050800X-0.700000X-0.700000X0.700000X-0.700000X0.700000X0.700000X-0.700000X0.700000X0*%
%ADD13C,1.501600*%
%ADD14C,2.701600*%
%ADD15O,2.844800X1.473200*%
%ADD16RoundRect,0.217170X-0.341630X0.024130X-0.341630X-0.024130X0.341630X-0.024130X0.341630X0.024130X0*%
G04 APERTURE END LIST*
D10*
%TO.C,JP7*%
X83820000Y26035000D03*
X81280000Y26035000D03*
X83820000Y28575000D03*
X81280000Y28575000D03*
X83820000Y31115000D03*
X81280000Y31115000D03*
X83820000Y33655000D03*
X81280000Y33655000D03*
%TD*%
D11*
%TO.C,UNK_HOLE_0*%
X98552000Y78740000D03*
%TD*%
D12*
%TO.C,U$4*%
X44450000Y13017500D03*
D13*
X44450000Y9202500D03*
X43180000Y11102500D03*
X41910000Y13002500D03*
X41910000Y9192500D03*
X40640000Y7287500D03*
X39370000Y13002500D03*
X43180000Y7287500D03*
X40640000Y11097500D03*
X39370000Y9192500D03*
X36830000Y13002500D03*
X35560000Y7287500D03*
X33020000Y11097500D03*
X31750000Y9192500D03*
X27940000Y7287500D03*
X25400000Y11097500D03*
X24130000Y9192500D03*
X21590000Y13002500D03*
X20320000Y7287500D03*
X17780000Y11097500D03*
X16510000Y9192500D03*
X13970000Y13002500D03*
X13970000Y9192500D03*
X38100000Y11097500D03*
X38100000Y7287500D03*
X36830000Y9192500D03*
X35560000Y11097500D03*
X34290000Y13002500D03*
X34290000Y9192500D03*
X33020000Y7287500D03*
X31750000Y13002500D03*
X30480000Y11097500D03*
X30480000Y7287500D03*
X29210000Y9192500D03*
X27940000Y11097500D03*
X26670000Y13002500D03*
X26670000Y9192500D03*
X25400000Y7287500D03*
X24130000Y13002500D03*
X22860000Y11097500D03*
X22860000Y7287500D03*
X21590000Y9192500D03*
X20320000Y11097500D03*
X19050000Y13002500D03*
X19050000Y9192500D03*
X17780000Y7287500D03*
X16510000Y13002500D03*
X15240000Y11097500D03*
X15240000Y7287500D03*
D14*
X50165000Y10160000D03*
X8255000Y10160000D03*
D13*
X29210000Y13002500D03*
%TD*%
D12*
%TO.C,U$3*%
X44450000Y33337500D03*
D13*
X44450000Y29522500D03*
X43180000Y31422500D03*
X41910000Y33322500D03*
X41910000Y29512500D03*
X40640000Y27607500D03*
X39370000Y33322500D03*
X43180000Y27607500D03*
X40640000Y31417500D03*
X39370000Y29512500D03*
X36830000Y33322500D03*
X35560000Y27607500D03*
X33020000Y31417500D03*
X31750000Y29512500D03*
X27940000Y27607500D03*
X25400000Y31417500D03*
X24130000Y29512500D03*
X21590000Y33322500D03*
X20320000Y27607500D03*
X17780000Y31417500D03*
X16510000Y29512500D03*
X13970000Y33322500D03*
X13970000Y29512500D03*
X38100000Y31417500D03*
X38100000Y27607500D03*
X36830000Y29512500D03*
X35560000Y31417500D03*
X34290000Y33322500D03*
X34290000Y29512500D03*
X33020000Y27607500D03*
X31750000Y33322500D03*
X30480000Y31417500D03*
X30480000Y27607500D03*
X29210000Y29512500D03*
X27940000Y31417500D03*
X26670000Y33322500D03*
X26670000Y29512500D03*
X25400000Y27607500D03*
X24130000Y33322500D03*
X22860000Y31417500D03*
X22860000Y27607500D03*
X21590000Y29512500D03*
X20320000Y31417500D03*
X19050000Y33322500D03*
X19050000Y29512500D03*
X17780000Y27607500D03*
X16510000Y33322500D03*
X15240000Y31417500D03*
X15240000Y27607500D03*
D14*
X50165000Y30480000D03*
X8255000Y30480000D03*
D13*
X29210000Y33322500D03*
%TD*%
D15*
%TO.C,JP15*%
X90170000Y52705000D03*
X90170000Y50165000D03*
X90170000Y47625000D03*
%TD*%
D16*
%TO.C,U$8*%
X64770000Y13970000D03*
X64770000Y13335000D03*
X64770000Y12700000D03*
X64770000Y12065000D03*
X64770000Y11430000D03*
X64770000Y10795000D03*
X64770000Y10160000D03*
X64770000Y9525000D03*
X64770000Y8890000D03*
X64770000Y8255000D03*
X64770000Y7620000D03*
X64770000Y6985000D03*
X64770000Y6350000D03*
X64770000Y5715000D03*
X64770000Y5080000D03*
X64770000Y4445000D03*
X64770000Y3810000D03*
X64770000Y3175000D03*
X66040000Y3175000D03*
X66040000Y3810000D03*
X66040000Y4445000D03*
X66040000Y5080000D03*
X66040000Y5715000D03*
X66040000Y6350000D03*
X66040000Y6985000D03*
X66040000Y7620000D03*
X66040000Y8255000D03*
X66040000Y8890000D03*
X66040000Y9525000D03*
X66040000Y10160000D03*
X66040000Y10795000D03*
X66040000Y11430000D03*
X66040000Y12065000D03*
X66040000Y12700000D03*
X66040000Y13335000D03*
X66040000Y13970000D03*
%TD*%
D15*
%TO.C,JP1*%
X90170000Y71755000D03*
X90170000Y69215000D03*
X90170000Y66675000D03*
%TD*%
D12*
%TO.C,U$2*%
X44450000Y53657500D03*
D13*
X44450000Y49842500D03*
X43180000Y51742500D03*
X41910000Y53642500D03*
X41910000Y49832500D03*
X40640000Y47927500D03*
X39370000Y53642500D03*
X43180000Y47927500D03*
X40640000Y51737500D03*
X39370000Y49832500D03*
X36830000Y53642500D03*
X35560000Y47927500D03*
X33020000Y51737500D03*
X31750000Y49832500D03*
X27940000Y47927500D03*
X25400000Y51737500D03*
X24130000Y49832500D03*
X21590000Y53642500D03*
X20320000Y47927500D03*
X17780000Y51737500D03*
X16510000Y49832500D03*
X13970000Y53642500D03*
X13970000Y49832500D03*
X38100000Y51737500D03*
X38100000Y47927500D03*
X36830000Y49832500D03*
X35560000Y51737500D03*
X34290000Y53642500D03*
X34290000Y49832500D03*
X33020000Y47927500D03*
X31750000Y53642500D03*
X30480000Y51737500D03*
X30480000Y47927500D03*
X29210000Y49832500D03*
X27940000Y51737500D03*
X26670000Y53642500D03*
X26670000Y49832500D03*
X25400000Y47927500D03*
X24130000Y53642500D03*
X22860000Y51737500D03*
X22860000Y47927500D03*
X21590000Y49832500D03*
X20320000Y51737500D03*
X19050000Y53642500D03*
X19050000Y49832500D03*
X17780000Y47927500D03*
X16510000Y53642500D03*
X15240000Y51737500D03*
X15240000Y47927500D03*
D14*
X50165000Y50800000D03*
X8255000Y50800000D03*
D13*
X29210000Y53642500D03*
%TD*%
D16*
%TO.C,U$6*%
X64770000Y55880000D03*
X64770000Y55245000D03*
X64770000Y54610000D03*
X64770000Y53975000D03*
X64770000Y53340000D03*
X64770000Y52705000D03*
X64770000Y52070000D03*
X64770000Y51435000D03*
X64770000Y50800000D03*
X64770000Y50165000D03*
X64770000Y49530000D03*
X64770000Y48895000D03*
X64770000Y48260000D03*
X64770000Y47625000D03*
X64770000Y46990000D03*
X64770000Y46355000D03*
X64770000Y45720000D03*
X64770000Y45085000D03*
X66040000Y45085000D03*
X66040000Y45720000D03*
X66040000Y46355000D03*
X66040000Y46990000D03*
X66040000Y47625000D03*
X66040000Y48260000D03*
X66040000Y48895000D03*
X66040000Y49530000D03*
X66040000Y50165000D03*
X66040000Y50800000D03*
X66040000Y51435000D03*
X66040000Y52070000D03*
X66040000Y52705000D03*
X66040000Y53340000D03*
X66040000Y53975000D03*
X66040000Y54610000D03*
X66040000Y55245000D03*
X66040000Y55880000D03*
%TD*%
D11*
%TO.C,UNK_HOLE_3*%
X1270000Y1270000D03*
%TD*%
D15*
%TO.C,JP19*%
X80010000Y52705000D03*
X80010000Y50165000D03*
X80010000Y47625000D03*
%TD*%
%TO.C,JP13*%
X95250000Y52705000D03*
X95250000Y50165000D03*
X95250000Y47625000D03*
%TD*%
%TO.C,JP4*%
X80010000Y71755000D03*
X80010000Y69215000D03*
X80010000Y66675000D03*
%TD*%
D11*
%TO.C,UNK_HOLE_2*%
X1270000Y78740000D03*
%TD*%
%TO.C,UNK_HOLE_1*%
X98552000Y1270000D03*
%TD*%
D10*
%TO.C,JP6*%
X93980000Y26035000D03*
X91440000Y26035000D03*
X93980000Y28575000D03*
X91440000Y28575000D03*
X93980000Y31115000D03*
X91440000Y31115000D03*
X93980000Y33655000D03*
X91440000Y33655000D03*
%TD*%
D12*
%TO.C,U$1*%
X44450000Y72707500D03*
D13*
X44450000Y68892500D03*
X43180000Y70792500D03*
X41910000Y72692500D03*
X41910000Y68882500D03*
X40640000Y66977500D03*
X39370000Y72692500D03*
X43180000Y66977500D03*
X40640000Y70787500D03*
X39370000Y68882500D03*
X36830000Y72692500D03*
X35560000Y66977500D03*
X33020000Y70787500D03*
X31750000Y68882500D03*
X27940000Y66977500D03*
X25400000Y70787500D03*
X24130000Y68882500D03*
X21590000Y72692500D03*
X20320000Y66977500D03*
X17780000Y70787500D03*
X16510000Y68882500D03*
X13970000Y72692500D03*
X13970000Y68882500D03*
X38100000Y70787500D03*
X38100000Y66977500D03*
X36830000Y68882500D03*
X35560000Y70787500D03*
X34290000Y72692500D03*
X34290000Y68882500D03*
X33020000Y66977500D03*
X31750000Y72692500D03*
X30480000Y70787500D03*
X30480000Y66977500D03*
X29210000Y68882500D03*
X27940000Y70787500D03*
X26670000Y72692500D03*
X26670000Y68882500D03*
X25400000Y66977500D03*
X24130000Y72692500D03*
X22860000Y70787500D03*
X22860000Y66977500D03*
X21590000Y68882500D03*
X20320000Y70787500D03*
X19050000Y72692500D03*
X19050000Y68882500D03*
X17780000Y66977500D03*
X16510000Y72692500D03*
X15240000Y70787500D03*
X15240000Y66977500D03*
D14*
X50165000Y69850000D03*
X8255000Y69850000D03*
D13*
X29210000Y72692500D03*
%TD*%
D16*
%TO.C,U$7*%
X64770000Y34290000D03*
X64770000Y33655000D03*
X64770000Y33020000D03*
X64770000Y32385000D03*
X64770000Y31750000D03*
X64770000Y31115000D03*
X64770000Y30480000D03*
X64770000Y29845000D03*
X64770000Y29210000D03*
X64770000Y28575000D03*
X64770000Y27940000D03*
X64770000Y27305000D03*
X64770000Y26670000D03*
X64770000Y26035000D03*
X64770000Y25400000D03*
X64770000Y24765000D03*
X64770000Y24130000D03*
X64770000Y23495000D03*
X66040000Y23495000D03*
X66040000Y24130000D03*
X66040000Y24765000D03*
X66040000Y25400000D03*
X66040000Y26035000D03*
X66040000Y26670000D03*
X66040000Y27305000D03*
X66040000Y27940000D03*
X66040000Y28575000D03*
X66040000Y29210000D03*
X66040000Y29845000D03*
X66040000Y30480000D03*
X66040000Y31115000D03*
X66040000Y31750000D03*
X66040000Y32385000D03*
X66040000Y33020000D03*
X66040000Y33655000D03*
X66040000Y34290000D03*
%TD*%
D15*
%TO.C,JP17*%
X85090000Y52705000D03*
X85090000Y50165000D03*
X85090000Y47625000D03*
%TD*%
%TO.C,JP3*%
X95250000Y71755000D03*
X95250000Y69215000D03*
X95250000Y66675000D03*
%TD*%
D16*
%TO.C,U$5*%
X64770000Y74930000D03*
X64770000Y74295000D03*
X64770000Y73660000D03*
X64770000Y73025000D03*
X64770000Y72390000D03*
X64770000Y71755000D03*
X64770000Y71120000D03*
X64770000Y70485000D03*
X64770000Y69850000D03*
X64770000Y69215000D03*
X64770000Y68580000D03*
X64770000Y67945000D03*
X64770000Y67310000D03*
X64770000Y66675000D03*
X64770000Y66040000D03*
X64770000Y65405000D03*
X64770000Y64770000D03*
X64770000Y64135000D03*
X66040000Y64135000D03*
X66040000Y64770000D03*
X66040000Y65405000D03*
X66040000Y66040000D03*
X66040000Y66675000D03*
X66040000Y67310000D03*
X66040000Y67945000D03*
X66040000Y68580000D03*
X66040000Y69215000D03*
X66040000Y69850000D03*
X66040000Y70485000D03*
X66040000Y71120000D03*
X66040000Y71755000D03*
X66040000Y72390000D03*
X66040000Y73025000D03*
X66040000Y73660000D03*
X66040000Y74295000D03*
X66040000Y74930000D03*
%TD*%
D15*
%TO.C,JP2*%
X85090000Y71755000D03*
X85090000Y69215000D03*
X85090000Y66675000D03*
%TD*%
M02*
