M48
; DRILL file KiCad 10.0.3-2.fc44 date 2026-06-26T15:21:11
; FORMAT={-:-/ absolute / metric / decimal}
; #@! TF.CreationDate,2026-06-26T15:21:11-07:00
; #@! TF.GenerationSoftware,Kicad,Pcbnew,10.0.3-2.fc44
; #@! TF.FileFunction,MixedPlating,1,2
FMAT,2
METRIC
; #@! TA.AperFunction,Plated,PTH,ViaDrill
T1C0.500
; #@! TA.AperFunction,Plated,PTH,ComponentDrill
T2C0.800
; #@! TA.AperFunction,Plated,PTH,ComponentDrill
T3C0.914
; #@! TA.AperFunction,Plated,PTH,ComponentDrill
T4C2.200
; #@! TA.AperFunction,NonPlated,NPTH,ComponentDrill
T5C1.300
%
G90
G05
T1
X57.5Y3.75
X57.5Y2.5
X62.5Y75.75
X62.5Y56.75
X62.5Y35.0
X62.5Y14.75
X70.25Y76.0
X70.25Y71.75
X70.25Y70.25
X70.25Y68.75
X70.25Y67.25
X70.25Y65.75
X70.25Y64.25
X70.25Y62.75
X70.25Y56.0
X70.25Y54.5
X70.25Y53.0
X70.25Y51.5
X70.25Y50.0
X70.25Y48.5
X70.25Y47.0
X70.25Y45.5
X70.25Y44.0
X70.5Y34.5
X70.5Y33.0
X70.5Y31.5
X70.5Y30.0
X70.5Y28.5
X70.5Y27.0
X70.5Y25.5
X70.5Y24.0
X70.5Y22.5
X70.5Y14.25
X70.5Y12.75
X70.5Y11.25
X70.5Y9.75
X70.5Y8.25
X70.5Y6.75
X70.5Y5.25
X70.5Y3.75
X70.5Y2.25
X71.5Y76.0
X72.5Y71.0
X72.5Y69.5
X72.5Y68.0
X72.5Y66.5
X72.5Y65.0
X72.5Y63.5
X72.5Y62.0
X72.5Y55.25
X72.5Y53.75
X72.5Y52.25
X72.5Y50.75
X72.5Y49.25
X72.5Y47.75
X72.5Y46.25
X72.5Y44.75
X72.5Y43.25
X72.75Y76.0
X72.75Y33.75
X72.75Y32.25
X72.75Y30.75
X72.75Y29.25
X72.75Y27.75
X72.75Y26.25
X72.75Y24.75
X72.75Y23.25
X72.75Y21.75
X72.75Y13.5
X72.75Y12.0
X72.75Y10.5
X72.75Y9.0
X72.75Y7.5
X72.75Y6.0
X72.75Y4.5
X72.75Y3.0
X72.75Y1.5
X74.0Y76.0
X79.25Y22.75
X80.5Y22.75
X81.75Y22.75
X83.0Y22.75
T2
X13.97Y72.692
X13.97Y68.882
X13.97Y53.642
X13.97Y49.832
X13.97Y33.322
X13.97Y29.512
X13.97Y13.002
X13.97Y9.192
X15.24Y70.787
X15.24Y66.977
X15.24Y51.737
X15.24Y47.927
X15.24Y31.417
X15.24Y27.607
X15.24Y11.098
X15.24Y7.287
X16.51Y72.692
X16.51Y68.882
X16.51Y53.642
X16.51Y49.832
X16.51Y33.322
X16.51Y29.512
X16.51Y13.002
X16.51Y9.192
X17.78Y70.787
X17.78Y66.977
X17.78Y51.737
X17.78Y47.927
X17.78Y31.417
X17.78Y27.607
X17.78Y11.098
X17.78Y7.287
X19.05Y72.692
X19.05Y68.882
X19.05Y53.642
X19.05Y49.832
X19.05Y33.322
X19.05Y29.512
X19.05Y13.002
X19.05Y9.192
X20.32Y70.787
X20.32Y66.977
X20.32Y51.737
X20.32Y47.927
X20.32Y31.417
X20.32Y27.607
X20.32Y11.098
X20.32Y7.287
X21.59Y72.692
X21.59Y68.882
X21.59Y53.642
X21.59Y49.832
X21.59Y33.322
X21.59Y29.512
X21.59Y13.002
X21.59Y9.192
X22.86Y70.787
X22.86Y66.977
X22.86Y51.737
X22.86Y47.927
X22.86Y31.417
X22.86Y27.607
X22.86Y11.098
X22.86Y7.287
X24.13Y72.692
X24.13Y68.882
X24.13Y53.642
X24.13Y49.832
X24.13Y33.322
X24.13Y29.512
X24.13Y13.002
X24.13Y9.192
X25.4Y70.787
X25.4Y66.977
X25.4Y51.737
X25.4Y47.927
X25.4Y31.417
X25.4Y27.607
X25.4Y11.098
X25.4Y7.287
X26.67Y72.692
X26.67Y68.882
X26.67Y53.642
X26.67Y49.832
X26.67Y33.322
X26.67Y29.512
X26.67Y13.002
X26.67Y9.192
X27.94Y70.787
X27.94Y66.977
X27.94Y51.737
X27.94Y47.927
X27.94Y31.417
X27.94Y27.607
X27.94Y11.098
X27.94Y7.287
X29.21Y72.692
X29.21Y68.882
X29.21Y53.642
X29.21Y49.832
X29.21Y33.322
X29.21Y29.512
X29.21Y13.002
X29.21Y9.192
X30.48Y70.787
X30.48Y66.977
X30.48Y51.737
X30.48Y47.927
X30.48Y31.417
X30.48Y27.607
X30.48Y11.098
X30.48Y7.287
X31.75Y72.692
X31.75Y68.882
X31.75Y53.642
X31.75Y49.832
X31.75Y33.322
X31.75Y29.512
X31.75Y13.002
X31.75Y9.192
X33.02Y70.787
X33.02Y66.977
X33.02Y51.737
X33.02Y47.927
X33.02Y31.417
X33.02Y27.607
X33.02Y11.098
X33.02Y7.287
X34.29Y72.692
X34.29Y68.882
X34.29Y53.642
X34.29Y49.832
X34.29Y33.322
X34.29Y29.512
X34.29Y13.002
X34.29Y9.192
X35.56Y70.787
X35.56Y66.977
X35.56Y51.737
X35.56Y47.927
X35.56Y31.417
X35.56Y27.607
X35.56Y11.098
X35.56Y7.287
X36.83Y72.692
X36.83Y68.882
X36.83Y53.642
X36.83Y49.832
X36.83Y33.322
X36.83Y29.512
X36.83Y13.002
X36.83Y9.192
X38.1Y70.787
X38.1Y66.977
X38.1Y51.737
X38.1Y47.927
X38.1Y31.417
X38.1Y27.607
X38.1Y11.098
X38.1Y7.287
X39.37Y72.692
X39.37Y68.882
X39.37Y53.642
X39.37Y49.832
X39.37Y33.322
X39.37Y29.512
X39.37Y13.002
X39.37Y9.192
X40.64Y70.787
X40.64Y66.977
X40.64Y51.737
X40.64Y47.927
X40.64Y31.417
X40.64Y27.607
X40.64Y11.098
X40.64Y7.287
X41.91Y72.692
X41.91Y68.882
X41.91Y53.642
X41.91Y49.832
X41.91Y33.322
X41.91Y29.512
X41.91Y13.002
X41.91Y9.192
X43.18Y70.792
X43.18Y66.977
X43.18Y51.742
X43.18Y47.927
X43.18Y31.422
X43.18Y27.607
X43.18Y11.102
X43.18Y7.287
X44.45Y72.707
X44.45Y68.892
X44.45Y53.657
X44.45Y49.843
X44.45Y33.337
X44.45Y29.522
X44.45Y13.018
X44.45Y9.202
T3
X80.01Y71.755
X80.01Y69.215
X80.01Y66.675
X80.01Y52.705
X80.01Y50.165
X80.01Y47.625
X81.28Y33.655
X81.28Y31.115
X81.28Y28.575
X81.28Y26.035
X83.82Y33.655
X83.82Y31.115
X83.82Y28.575
X83.82Y26.035
X85.09Y71.755
X85.09Y69.215
X85.09Y66.675
X85.09Y52.705
X85.09Y50.165
X85.09Y47.625
X90.17Y71.755
X90.17Y69.215
X90.17Y66.675
X90.17Y52.705
X90.17Y50.165
X90.17Y47.625
X91.44Y33.655
X91.44Y31.115
X91.44Y28.575
X91.44Y26.035
X93.98Y33.655
X93.98Y31.115
X93.98Y28.575
X93.98Y26.035
X95.25Y71.755
X95.25Y69.215
X95.25Y66.675
X95.25Y52.705
X95.25Y50.165
X95.25Y47.625
T4
X8.255Y69.85
X8.255Y50.8
X8.255Y30.48
X8.255Y10.16
X50.165Y69.85
X50.165Y50.8
X50.165Y30.48
X50.165Y10.16
T5
X1.27Y78.74
X1.27Y1.27
X98.552Y78.74
X98.552Y1.27
M30
