%TF.GenerationSoftware,KiCad,Pcbnew,10.0.4-1.fc44*%
%TF.CreationDate,2026-07-02T15:55:56-07:00*%
%TF.ProjectId,eeg-adapter-revb,6565672d-6164-4617-9074-65722d726576,rev?*%
%TF.SameCoordinates,Original*%
%TF.FileFunction,Paste,Top*%
%TF.FilePolarity,Positive*%
%FSLAX46Y46*%
G04 Gerber Fmt 4.6, Leading zero omitted, Abs format (unit mm)*
G04 Created by KiCad (PCBNEW 10.0.4-1.fc44) date 2026-07-02 15:55:56*
%MOMM*%
%LPD*%
G01*
G04 APERTURE LIST*
G04 Aperture macros list*
%AMRoundRect*
0 Rectangle with rounded corners*
0 $1 Rounding radius*
0 $2 $3 $4 $5 $6 $7 $8 $9 X,Y pos of 4 corners*
0 Add a 4 corners polygon primitive as box body*
4,1,4,$2,$3,$4,$5,$6,$7,$8,$9,$2,$3,0*
0 Add four circle primitives for the rounded corners*
1,1,$1+$1,$2,$3*
1,1,$1+$1,$4,$5*
1,1,$1+$1,$6,$7*
1,1,$1+$1,$8,$9*
0 Add four rect primitives between the rounded corners*
20,1,$1+$1,$2,$3,$4,$5,0*
20,1,$1+$1,$4,$5,$6,$7,0*
20,1,$1+$1,$6,$7,$8,$9,0*
20,1,$1+$1,$8,$9,$2,$3,0*%
G04 Aperture macros list end*
%ADD10RoundRect,0.171450X-0.336550X0.019050X-0.336550X-0.019050X0.336550X-0.019050X0.336550X0.019050X0*%
G04 APERTURE END LIST*
D10*
%TO.C,U$8*%
X64770000Y13970000D03*
X64770000Y13335000D03*
X64770000Y12700000D03*
X64770000Y12065000D03*
X64770000Y11430000D03*
X64770000Y10795000D03*
X64770000Y10160000D03*
X64770000Y9525000D03*
X64770000Y8890000D03*
X64770000Y8255000D03*
X64770000Y7620000D03*
X64770000Y6985000D03*
X64770000Y6350000D03*
X64770000Y5715000D03*
X64770000Y5080000D03*
X64770000Y4445000D03*
X64770000Y3810000D03*
X64770000Y3175000D03*
X66040000Y3175000D03*
X66040000Y3810000D03*
X66040000Y4445000D03*
X66040000Y5080000D03*
X66040000Y5715000D03*
X66040000Y6350000D03*
X66040000Y6985000D03*
X66040000Y7620000D03*
X66040000Y8255000D03*
X66040000Y8890000D03*
X66040000Y9525000D03*
X66040000Y10160000D03*
X66040000Y10795000D03*
X66040000Y11430000D03*
X66040000Y12065000D03*
X66040000Y12700000D03*
X66040000Y13335000D03*
X66040000Y13970000D03*
%TD*%
%TO.C,U$6*%
X64770000Y55880000D03*
X64770000Y55245000D03*
X64770000Y54610000D03*
X64770000Y53975000D03*
X64770000Y53340000D03*
X64770000Y52705000D03*
X64770000Y52070000D03*
X64770000Y51435000D03*
X64770000Y50800000D03*
X64770000Y50165000D03*
X64770000Y49530000D03*
X64770000Y48895000D03*
X64770000Y48260000D03*
X64770000Y47625000D03*
X64770000Y46990000D03*
X64770000Y46355000D03*
X64770000Y45720000D03*
X64770000Y45085000D03*
X66040000Y45085000D03*
X66040000Y45720000D03*
X66040000Y46355000D03*
X66040000Y46990000D03*
X66040000Y47625000D03*
X66040000Y48260000D03*
X66040000Y48895000D03*
X66040000Y49530000D03*
X66040000Y50165000D03*
X66040000Y50800000D03*
X66040000Y51435000D03*
X66040000Y52070000D03*
X66040000Y52705000D03*
X66040000Y53340000D03*
X66040000Y53975000D03*
X66040000Y54610000D03*
X66040000Y55245000D03*
X66040000Y55880000D03*
%TD*%
%TO.C,U$7*%
X64770000Y34290000D03*
X64770000Y33655000D03*
X64770000Y33020000D03*
X64770000Y32385000D03*
X64770000Y31750000D03*
X64770000Y31115000D03*
X64770000Y30480000D03*
X64770000Y29845000D03*
X64770000Y29210000D03*
X64770000Y28575000D03*
X64770000Y27940000D03*
X64770000Y27305000D03*
X64770000Y26670000D03*
X64770000Y26035000D03*
X64770000Y25400000D03*
X64770000Y24765000D03*
X64770000Y24130000D03*
X64770000Y23495000D03*
X66040000Y23495000D03*
X66040000Y24130000D03*
X66040000Y24765000D03*
X66040000Y25400000D03*
X66040000Y26035000D03*
X66040000Y26670000D03*
X66040000Y27305000D03*
X66040000Y27940000D03*
X66040000Y28575000D03*
X66040000Y29210000D03*
X66040000Y29845000D03*
X66040000Y30480000D03*
X66040000Y31115000D03*
X66040000Y31750000D03*
X66040000Y32385000D03*
X66040000Y33020000D03*
X66040000Y33655000D03*
X66040000Y34290000D03*
%TD*%
%TO.C,U$5*%
X64770000Y74930000D03*
X64770000Y74295000D03*
X64770000Y73660000D03*
X64770000Y73025000D03*
X64770000Y72390000D03*
X64770000Y71755000D03*
X64770000Y71120000D03*
X64770000Y70485000D03*
X64770000Y69850000D03*
X64770000Y69215000D03*
X64770000Y68580000D03*
X64770000Y67945000D03*
X64770000Y67310000D03*
X64770000Y66675000D03*
X64770000Y66040000D03*
X64770000Y65405000D03*
X64770000Y64770000D03*
X64770000Y64135000D03*
X66040000Y64135000D03*
X66040000Y64770000D03*
X66040000Y65405000D03*
X66040000Y66040000D03*
X66040000Y66675000D03*
X66040000Y67310000D03*
X66040000Y67945000D03*
X66040000Y68580000D03*
X66040000Y69215000D03*
X66040000Y69850000D03*
X66040000Y70485000D03*
X66040000Y71120000D03*
X66040000Y71755000D03*
X66040000Y72390000D03*
X66040000Y73025000D03*
X66040000Y73660000D03*
X66040000Y74295000D03*
X66040000Y74930000D03*
%TD*%
M02*
