%TF.GenerationSoftware,KiCad,Pcbnew,10.0.4-1.fc44*%
%TF.CreationDate,2026-07-02T15:57:42-07:00*%
%TF.ProjectId,eeg-adapter-revb,6565672d-6164-4617-9074-65722d726576,rev?*%
%TF.SameCoordinates,Original*%
%TF.FileFunction,Drillmap*%
%TF.FilePolarity,Positive*%
%FSLAX45Y45*%
G04 Gerber Fmt 4.5, Leading zero omitted, Abs format (unit mm)*
G04 Created by KiCad (PCBNEW 10.0.4-1.fc44) date 2026-07-02 15:57:42*
%MOMM*%
%LPD*%
G01*
G04 APERTURE LIST*
%ADD10C,0.050000*%
%ADD11C,0.200000*%
%ADD12C,0.100000*%
%ADD13C,0.220000*%
%ADD14C,0.130000*%
G04 APERTURE END LIST*
D10*
X0Y8000000D02*
X0Y0D01*
X0Y0D02*
X10000000Y0D01*
X10000000Y8000000D02*
X0Y8000000D01*
X10000000Y0D02*
X10000000Y8000000D01*
D11*
D12*
X5725000Y400000D02*
X5775000Y350000D01*
X5775000Y400000D02*
X5725000Y350000D01*
X5725000Y275000D02*
X5775000Y225000D01*
X5775000Y275000D02*
X5725000Y225000D01*
X6225000Y7600000D02*
X6275000Y7550000D01*
X6275000Y7600000D02*
X6225000Y7550000D01*
X6225000Y5700000D02*
X6275000Y5650000D01*
X6275000Y5700000D02*
X6225000Y5650000D01*
X6225000Y3525000D02*
X6275000Y3475000D01*
X6275000Y3525000D02*
X6225000Y3475000D01*
X6225000Y1500000D02*
X6275000Y1450000D01*
X6275000Y1500000D02*
X6225000Y1450000D01*
X7000000Y7625000D02*
X7050000Y7575000D01*
X7050000Y7625000D02*
X7000000Y7575000D01*
X7000000Y7200000D02*
X7050000Y7150000D01*
X7050000Y7200000D02*
X7000000Y7150000D01*
X7000000Y7050000D02*
X7050000Y7000000D01*
X7050000Y7050000D02*
X7000000Y7000000D01*
X7000000Y6900000D02*
X7050000Y6850000D01*
X7050000Y6900000D02*
X7000000Y6850000D01*
X7000000Y6750000D02*
X7050000Y6700000D01*
X7050000Y6750000D02*
X7000000Y6700000D01*
X7000000Y6600000D02*
X7050000Y6550000D01*
X7050000Y6600000D02*
X7000000Y6550000D01*
X7000000Y6450000D02*
X7050000Y6400000D01*
X7050000Y6450000D02*
X7000000Y6400000D01*
X7000000Y6300000D02*
X7050000Y6250000D01*
X7050000Y6300000D02*
X7000000Y6250000D01*
X7000000Y5625000D02*
X7050000Y5575000D01*
X7050000Y5625000D02*
X7000000Y5575000D01*
X7000000Y5475000D02*
X7050000Y5425000D01*
X7050000Y5475000D02*
X7000000Y5425000D01*
X7000000Y5325000D02*
X7050000Y5275000D01*
X7050000Y5325000D02*
X7000000Y5275000D01*
X7000000Y5175000D02*
X7050000Y5125000D01*
X7050000Y5175000D02*
X7000000Y5125000D01*
X7000000Y5025000D02*
X7050000Y4975000D01*
X7050000Y5025000D02*
X7000000Y4975000D01*
X7000000Y4875000D02*
X7050000Y4825000D01*
X7050000Y4875000D02*
X7000000Y4825000D01*
X7000000Y4725000D02*
X7050000Y4675000D01*
X7050000Y4725000D02*
X7000000Y4675000D01*
X7000000Y4575000D02*
X7050000Y4525000D01*
X7050000Y4575000D02*
X7000000Y4525000D01*
X7000000Y4425000D02*
X7050000Y4375000D01*
X7050000Y4425000D02*
X7000000Y4375000D01*
X7025000Y3475000D02*
X7075000Y3425000D01*
X7075000Y3475000D02*
X7025000Y3425000D01*
X7025000Y3325000D02*
X7075000Y3275000D01*
X7075000Y3325000D02*
X7025000Y3275000D01*
X7025000Y3175000D02*
X7075000Y3125000D01*
X7075000Y3175000D02*
X7025000Y3125000D01*
X7025000Y3025000D02*
X7075000Y2975000D01*
X7075000Y3025000D02*
X7025000Y2975000D01*
X7025000Y2875000D02*
X7075000Y2825000D01*
X7075000Y2875000D02*
X7025000Y2825000D01*
X7025000Y2725000D02*
X7075000Y2675000D01*
X7075000Y2725000D02*
X7025000Y2675000D01*
X7025000Y2575000D02*
X7075000Y2525000D01*
X7075000Y2575000D02*
X7025000Y2525000D01*
X7025000Y2425000D02*
X7075000Y2375000D01*
X7075000Y2425000D02*
X7025000Y2375000D01*
X7025000Y2275000D02*
X7075000Y2225000D01*
X7075000Y2275000D02*
X7025000Y2225000D01*
X7025000Y1450000D02*
X7075000Y1400000D01*
X7075000Y1450000D02*
X7025000Y1400000D01*
X7025000Y1300000D02*
X7075000Y1250000D01*
X7075000Y1300000D02*
X7025000Y1250000D01*
X7025000Y1150000D02*
X7075000Y1100000D01*
X7075000Y1150000D02*
X7025000Y1100000D01*
X7025000Y1000000D02*
X7075000Y950000D01*
X7075000Y1000000D02*
X7025000Y950000D01*
X7025000Y850000D02*
X7075000Y800000D01*
X7075000Y850000D02*
X7025000Y800000D01*
X7025000Y700000D02*
X7075000Y650000D01*
X7075000Y700000D02*
X7025000Y650000D01*
X7025000Y550000D02*
X7075000Y500000D01*
X7075000Y550000D02*
X7025000Y500000D01*
X7025000Y400000D02*
X7075000Y350000D01*
X7075000Y400000D02*
X7025000Y350000D01*
X7025000Y250000D02*
X7075000Y200000D01*
X7075000Y250000D02*
X7025000Y200000D01*
X7125000Y7625000D02*
X7175000Y7575000D01*
X7175000Y7625000D02*
X7125000Y7575000D01*
X7225000Y7125000D02*
X7275000Y7075000D01*
X7275000Y7125000D02*
X7225000Y7075000D01*
X7225000Y6975000D02*
X7275000Y6925000D01*
X7275000Y6975000D02*
X7225000Y6925000D01*
X7225000Y6825000D02*
X7275000Y6775000D01*
X7275000Y6825000D02*
X7225000Y6775000D01*
X7225000Y6675000D02*
X7275000Y6625000D01*
X7275000Y6675000D02*
X7225000Y6625000D01*
X7225000Y6525000D02*
X7275000Y6475000D01*
X7275000Y6525000D02*
X7225000Y6475000D01*
X7225000Y6375000D02*
X7275000Y6325000D01*
X7275000Y6375000D02*
X7225000Y6325000D01*
X7225000Y6225000D02*
X7275000Y6175000D01*
X7275000Y6225000D02*
X7225000Y6175000D01*
X7225000Y5550000D02*
X7275000Y5500000D01*
X7275000Y5550000D02*
X7225000Y5500000D01*
X7225000Y5400000D02*
X7275000Y5350000D01*
X7275000Y5400000D02*
X7225000Y5350000D01*
X7225000Y5250000D02*
X7275000Y5200000D01*
X7275000Y5250000D02*
X7225000Y5200000D01*
X7225000Y5100000D02*
X7275000Y5050000D01*
X7275000Y5100000D02*
X7225000Y5050000D01*
X7225000Y4950000D02*
X7275000Y4900000D01*
X7275000Y4950000D02*
X7225000Y4900000D01*
X7225000Y4800000D02*
X7275000Y4750000D01*
X7275000Y4800000D02*
X7225000Y4750000D01*
X7225000Y4650000D02*
X7275000Y4600000D01*
X7275000Y4650000D02*
X7225000Y4600000D01*
X7225000Y4500000D02*
X7275000Y4450000D01*
X7275000Y4500000D02*
X7225000Y4450000D01*
X7225000Y4350000D02*
X7275000Y4300000D01*
X7275000Y4350000D02*
X7225000Y4300000D01*
X7250000Y7625000D02*
X7300000Y7575000D01*
X7300000Y7625000D02*
X7250000Y7575000D01*
X7250000Y3400000D02*
X7300000Y3350000D01*
X7300000Y3400000D02*
X7250000Y3350000D01*
X7250000Y3250000D02*
X7300000Y3200000D01*
X7300000Y3250000D02*
X7250000Y3200000D01*
X7250000Y3100000D02*
X7300000Y3050000D01*
X7300000Y3100000D02*
X7250000Y3050000D01*
X7250000Y2950000D02*
X7300000Y2900000D01*
X7300000Y2950000D02*
X7250000Y2900000D01*
X7250000Y2800000D02*
X7300000Y2750000D01*
X7300000Y2800000D02*
X7250000Y2750000D01*
X7250000Y2650000D02*
X7300000Y2600000D01*
X7300000Y2650000D02*
X7250000Y2600000D01*
X7250000Y2500000D02*
X7300000Y2450000D01*
X7300000Y2500000D02*
X7250000Y2450000D01*
X7250000Y2350000D02*
X7300000Y2300000D01*
X7300000Y2350000D02*
X7250000Y2300000D01*
X7250000Y2200000D02*
X7300000Y2150000D01*
X7300000Y2200000D02*
X7250000Y2150000D01*
X7250000Y1375000D02*
X7300000Y1325000D01*
X7300000Y1375000D02*
X7250000Y1325000D01*
X7250000Y1225000D02*
X7300000Y1175000D01*
X7300000Y1225000D02*
X7250000Y1175000D01*
X7250000Y1075000D02*
X7300000Y1025000D01*
X7300000Y1075000D02*
X7250000Y1025000D01*
X7250000Y925000D02*
X7300000Y875000D01*
X7300000Y925000D02*
X7250000Y875000D01*
X7250000Y775000D02*
X7300000Y725000D01*
X7300000Y775000D02*
X7250000Y725000D01*
X7250000Y625000D02*
X7300000Y575000D01*
X7300000Y625000D02*
X7250000Y575000D01*
X7250000Y475000D02*
X7300000Y425000D01*
X7300000Y475000D02*
X7250000Y425000D01*
X7250000Y325000D02*
X7300000Y275000D01*
X7300000Y325000D02*
X7250000Y275000D01*
X7250000Y175000D02*
X7300000Y125000D01*
X7300000Y175000D02*
X7250000Y125000D01*
X7375000Y7625000D02*
X7425000Y7575000D01*
X7425000Y7625000D02*
X7375000Y7575000D01*
X7900000Y2300000D02*
X7950000Y2250000D01*
X7950000Y2300000D02*
X7900000Y2250000D01*
X8025000Y2300000D02*
X8075000Y2250000D01*
X8075000Y2300000D02*
X8025000Y2250000D01*
X8150000Y2300000D02*
X8200000Y2250000D01*
X8200000Y2300000D02*
X8150000Y2250000D01*
X8275000Y2300000D02*
X8325000Y2250000D01*
X8325000Y2300000D02*
X8275000Y2250000D01*
X1437000Y7269250D02*
G75*
G02*
X1357000Y7269250I-40000J0D01*
G01*
X1357000Y7269250D02*
G75*
G02*
X1437000Y7269250I40000J0D01*
G01*
X1437000Y6888250D02*
G75*
G02*
X1357000Y6888250I-40000J0D01*
G01*
X1357000Y6888250D02*
G75*
G02*
X1437000Y6888250I40000J0D01*
G01*
X1437000Y5364250D02*
G75*
G02*
X1357000Y5364250I-40000J0D01*
G01*
X1357000Y5364250D02*
G75*
G02*
X1437000Y5364250I40000J0D01*
G01*
X1437000Y4983250D02*
G75*
G02*
X1357000Y4983250I-40000J0D01*
G01*
X1357000Y4983250D02*
G75*
G02*
X1437000Y4983250I40000J0D01*
G01*
X1437000Y3332250D02*
G75*
G02*
X1357000Y3332250I-40000J0D01*
G01*
X1357000Y3332250D02*
G75*
G02*
X1437000Y3332250I40000J0D01*
G01*
X1437000Y2951250D02*
G75*
G02*
X1357000Y2951250I-40000J0D01*
G01*
X1357000Y2951250D02*
G75*
G02*
X1437000Y2951250I40000J0D01*
G01*
X1437000Y1300250D02*
G75*
G02*
X1357000Y1300250I-40000J0D01*
G01*
X1357000Y1300250D02*
G75*
G02*
X1437000Y1300250I40000J0D01*
G01*
X1437000Y919250D02*
G75*
G02*
X1357000Y919250I-40000J0D01*
G01*
X1357000Y919250D02*
G75*
G02*
X1437000Y919250I40000J0D01*
G01*
X1564000Y7078750D02*
G75*
G02*
X1484000Y7078750I-40000J0D01*
G01*
X1484000Y7078750D02*
G75*
G02*
X1564000Y7078750I40000J0D01*
G01*
X1564000Y6697750D02*
G75*
G02*
X1484000Y6697750I-40000J0D01*
G01*
X1484000Y6697750D02*
G75*
G02*
X1564000Y6697750I40000J0D01*
G01*
X1564000Y5173750D02*
G75*
G02*
X1484000Y5173750I-40000J0D01*
G01*
X1484000Y5173750D02*
G75*
G02*
X1564000Y5173750I40000J0D01*
G01*
X1564000Y4792750D02*
G75*
G02*
X1484000Y4792750I-40000J0D01*
G01*
X1484000Y4792750D02*
G75*
G02*
X1564000Y4792750I40000J0D01*
G01*
X1564000Y3141750D02*
G75*
G02*
X1484000Y3141750I-40000J0D01*
G01*
X1484000Y3141750D02*
G75*
G02*
X1564000Y3141750I40000J0D01*
G01*
X1564000Y2760750D02*
G75*
G02*
X1484000Y2760750I-40000J0D01*
G01*
X1484000Y2760750D02*
G75*
G02*
X1564000Y2760750I40000J0D01*
G01*
X1564000Y1109750D02*
G75*
G02*
X1484000Y1109750I-40000J0D01*
G01*
X1484000Y1109750D02*
G75*
G02*
X1564000Y1109750I40000J0D01*
G01*
X1564000Y728750D02*
G75*
G02*
X1484000Y728750I-40000J0D01*
G01*
X1484000Y728750D02*
G75*
G02*
X1564000Y728750I40000J0D01*
G01*
X1691000Y7269250D02*
G75*
G02*
X1611000Y7269250I-40000J0D01*
G01*
X1611000Y7269250D02*
G75*
G02*
X1691000Y7269250I40000J0D01*
G01*
X1691000Y6888250D02*
G75*
G02*
X1611000Y6888250I-40000J0D01*
G01*
X1611000Y6888250D02*
G75*
G02*
X1691000Y6888250I40000J0D01*
G01*
X1691000Y5364250D02*
G75*
G02*
X1611000Y5364250I-40000J0D01*
G01*
X1611000Y5364250D02*
G75*
G02*
X1691000Y5364250I40000J0D01*
G01*
X1691000Y4983250D02*
G75*
G02*
X1611000Y4983250I-40000J0D01*
G01*
X1611000Y4983250D02*
G75*
G02*
X1691000Y4983250I40000J0D01*
G01*
X1691000Y3332250D02*
G75*
G02*
X1611000Y3332250I-40000J0D01*
G01*
X1611000Y3332250D02*
G75*
G02*
X1691000Y3332250I40000J0D01*
G01*
X1691000Y2951250D02*
G75*
G02*
X1611000Y2951250I-40000J0D01*
G01*
X1611000Y2951250D02*
G75*
G02*
X1691000Y2951250I40000J0D01*
G01*
X1691000Y1300250D02*
G75*
G02*
X1611000Y1300250I-40000J0D01*
G01*
X1611000Y1300250D02*
G75*
G02*
X1691000Y1300250I40000J0D01*
G01*
X1691000Y919250D02*
G75*
G02*
X1611000Y919250I-40000J0D01*
G01*
X1611000Y919250D02*
G75*
G02*
X1691000Y919250I40000J0D01*
G01*
X1818000Y7078750D02*
G75*
G02*
X1738000Y7078750I-40000J0D01*
G01*
X1738000Y7078750D02*
G75*
G02*
X1818000Y7078750I40000J0D01*
G01*
X1818000Y6697750D02*
G75*
G02*
X1738000Y6697750I-40000J0D01*
G01*
X1738000Y6697750D02*
G75*
G02*
X1818000Y6697750I40000J0D01*
G01*
X1818000Y5173750D02*
G75*
G02*
X1738000Y5173750I-40000J0D01*
G01*
X1738000Y5173750D02*
G75*
G02*
X1818000Y5173750I40000J0D01*
G01*
X1818000Y4792750D02*
G75*
G02*
X1738000Y4792750I-40000J0D01*
G01*
X1738000Y4792750D02*
G75*
G02*
X1818000Y4792750I40000J0D01*
G01*
X1818000Y3141750D02*
G75*
G02*
X1738000Y3141750I-40000J0D01*
G01*
X1738000Y3141750D02*
G75*
G02*
X1818000Y3141750I40000J0D01*
G01*
X1818000Y2760750D02*
G75*
G02*
X1738000Y2760750I-40000J0D01*
G01*
X1738000Y2760750D02*
G75*
G02*
X1818000Y2760750I40000J0D01*
G01*
X1818000Y1109750D02*
G75*
G02*
X1738000Y1109750I-40000J0D01*
G01*
X1738000Y1109750D02*
G75*
G02*
X1818000Y1109750I40000J0D01*
G01*
X1818000Y728750D02*
G75*
G02*
X1738000Y728750I-40000J0D01*
G01*
X1738000Y728750D02*
G75*
G02*
X1818000Y728750I40000J0D01*
G01*
X1945000Y7269250D02*
G75*
G02*
X1865000Y7269250I-40000J0D01*
G01*
X1865000Y7269250D02*
G75*
G02*
X1945000Y7269250I40000J0D01*
G01*
X1945000Y6888250D02*
G75*
G02*
X1865000Y6888250I-40000J0D01*
G01*
X1865000Y6888250D02*
G75*
G02*
X1945000Y6888250I40000J0D01*
G01*
X1945000Y5364250D02*
G75*
G02*
X1865000Y5364250I-40000J0D01*
G01*
X1865000Y5364250D02*
G75*
G02*
X1945000Y5364250I40000J0D01*
G01*
X1945000Y4983250D02*
G75*
G02*
X1865000Y4983250I-40000J0D01*
G01*
X1865000Y4983250D02*
G75*
G02*
X1945000Y4983250I40000J0D01*
G01*
X1945000Y3332250D02*
G75*
G02*
X1865000Y3332250I-40000J0D01*
G01*
X1865000Y3332250D02*
G75*
G02*
X1945000Y3332250I40000J0D01*
G01*
X1945000Y2951250D02*
G75*
G02*
X1865000Y2951250I-40000J0D01*
G01*
X1865000Y2951250D02*
G75*
G02*
X1945000Y2951250I40000J0D01*
G01*
X1945000Y1300250D02*
G75*
G02*
X1865000Y1300250I-40000J0D01*
G01*
X1865000Y1300250D02*
G75*
G02*
X1945000Y1300250I40000J0D01*
G01*
X1945000Y919250D02*
G75*
G02*
X1865000Y919250I-40000J0D01*
G01*
X1865000Y919250D02*
G75*
G02*
X1945000Y919250I40000J0D01*
G01*
X2072000Y7078750D02*
G75*
G02*
X1992000Y7078750I-40000J0D01*
G01*
X1992000Y7078750D02*
G75*
G02*
X2072000Y7078750I40000J0D01*
G01*
X2072000Y6697750D02*
G75*
G02*
X1992000Y6697750I-40000J0D01*
G01*
X1992000Y6697750D02*
G75*
G02*
X2072000Y6697750I40000J0D01*
G01*
X2072000Y5173750D02*
G75*
G02*
X1992000Y5173750I-40000J0D01*
G01*
X1992000Y5173750D02*
G75*
G02*
X2072000Y5173750I40000J0D01*
G01*
X2072000Y4792750D02*
G75*
G02*
X1992000Y4792750I-40000J0D01*
G01*
X1992000Y4792750D02*
G75*
G02*
X2072000Y4792750I40000J0D01*
G01*
X2072000Y3141750D02*
G75*
G02*
X1992000Y3141750I-40000J0D01*
G01*
X1992000Y3141750D02*
G75*
G02*
X2072000Y3141750I40000J0D01*
G01*
X2072000Y2760750D02*
G75*
G02*
X1992000Y2760750I-40000J0D01*
G01*
X1992000Y2760750D02*
G75*
G02*
X2072000Y2760750I40000J0D01*
G01*
X2072000Y1109750D02*
G75*
G02*
X1992000Y1109750I-40000J0D01*
G01*
X1992000Y1109750D02*
G75*
G02*
X2072000Y1109750I40000J0D01*
G01*
X2072000Y728750D02*
G75*
G02*
X1992000Y728750I-40000J0D01*
G01*
X1992000Y728750D02*
G75*
G02*
X2072000Y728750I40000J0D01*
G01*
X2199000Y7269250D02*
G75*
G02*
X2119000Y7269250I-40000J0D01*
G01*
X2119000Y7269250D02*
G75*
G02*
X2199000Y7269250I40000J0D01*
G01*
X2199000Y6888250D02*
G75*
G02*
X2119000Y6888250I-40000J0D01*
G01*
X2119000Y6888250D02*
G75*
G02*
X2199000Y6888250I40000J0D01*
G01*
X2199000Y5364250D02*
G75*
G02*
X2119000Y5364250I-40000J0D01*
G01*
X2119000Y5364250D02*
G75*
G02*
X2199000Y5364250I40000J0D01*
G01*
X2199000Y4983250D02*
G75*
G02*
X2119000Y4983250I-40000J0D01*
G01*
X2119000Y4983250D02*
G75*
G02*
X2199000Y4983250I40000J0D01*
G01*
X2199000Y3332250D02*
G75*
G02*
X2119000Y3332250I-40000J0D01*
G01*
X2119000Y3332250D02*
G75*
G02*
X2199000Y3332250I40000J0D01*
G01*
X2199000Y2951250D02*
G75*
G02*
X2119000Y2951250I-40000J0D01*
G01*
X2119000Y2951250D02*
G75*
G02*
X2199000Y2951250I40000J0D01*
G01*
X2199000Y1300250D02*
G75*
G02*
X2119000Y1300250I-40000J0D01*
G01*
X2119000Y1300250D02*
G75*
G02*
X2199000Y1300250I40000J0D01*
G01*
X2199000Y919250D02*
G75*
G02*
X2119000Y919250I-40000J0D01*
G01*
X2119000Y919250D02*
G75*
G02*
X2199000Y919250I40000J0D01*
G01*
X2326000Y7078750D02*
G75*
G02*
X2246000Y7078750I-40000J0D01*
G01*
X2246000Y7078750D02*
G75*
G02*
X2326000Y7078750I40000J0D01*
G01*
X2326000Y6697750D02*
G75*
G02*
X2246000Y6697750I-40000J0D01*
G01*
X2246000Y6697750D02*
G75*
G02*
X2326000Y6697750I40000J0D01*
G01*
X2326000Y5173750D02*
G75*
G02*
X2246000Y5173750I-40000J0D01*
G01*
X2246000Y5173750D02*
G75*
G02*
X2326000Y5173750I40000J0D01*
G01*
X2326000Y4792750D02*
G75*
G02*
X2246000Y4792750I-40000J0D01*
G01*
X2246000Y4792750D02*
G75*
G02*
X2326000Y4792750I40000J0D01*
G01*
X2326000Y3141750D02*
G75*
G02*
X2246000Y3141750I-40000J0D01*
G01*
X2246000Y3141750D02*
G75*
G02*
X2326000Y3141750I40000J0D01*
G01*
X2326000Y2760750D02*
G75*
G02*
X2246000Y2760750I-40000J0D01*
G01*
X2246000Y2760750D02*
G75*
G02*
X2326000Y2760750I40000J0D01*
G01*
X2326000Y1109750D02*
G75*
G02*
X2246000Y1109750I-40000J0D01*
G01*
X2246000Y1109750D02*
G75*
G02*
X2326000Y1109750I40000J0D01*
G01*
X2326000Y728750D02*
G75*
G02*
X2246000Y728750I-40000J0D01*
G01*
X2246000Y728750D02*
G75*
G02*
X2326000Y728750I40000J0D01*
G01*
X2453000Y7269250D02*
G75*
G02*
X2373000Y7269250I-40000J0D01*
G01*
X2373000Y7269250D02*
G75*
G02*
X2453000Y7269250I40000J0D01*
G01*
X2453000Y6888250D02*
G75*
G02*
X2373000Y6888250I-40000J0D01*
G01*
X2373000Y6888250D02*
G75*
G02*
X2453000Y6888250I40000J0D01*
G01*
X2453000Y5364250D02*
G75*
G02*
X2373000Y5364250I-40000J0D01*
G01*
X2373000Y5364250D02*
G75*
G02*
X2453000Y5364250I40000J0D01*
G01*
X2453000Y4983250D02*
G75*
G02*
X2373000Y4983250I-40000J0D01*
G01*
X2373000Y4983250D02*
G75*
G02*
X2453000Y4983250I40000J0D01*
G01*
X2453000Y3332250D02*
G75*
G02*
X2373000Y3332250I-40000J0D01*
G01*
X2373000Y3332250D02*
G75*
G02*
X2453000Y3332250I40000J0D01*
G01*
X2453000Y2951250D02*
G75*
G02*
X2373000Y2951250I-40000J0D01*
G01*
X2373000Y2951250D02*
G75*
G02*
X2453000Y2951250I40000J0D01*
G01*
X2453000Y1300250D02*
G75*
G02*
X2373000Y1300250I-40000J0D01*
G01*
X2373000Y1300250D02*
G75*
G02*
X2453000Y1300250I40000J0D01*
G01*
X2453000Y919250D02*
G75*
G02*
X2373000Y919250I-40000J0D01*
G01*
X2373000Y919250D02*
G75*
G02*
X2453000Y919250I40000J0D01*
G01*
X2580000Y7078750D02*
G75*
G02*
X2500000Y7078750I-40000J0D01*
G01*
X2500000Y7078750D02*
G75*
G02*
X2580000Y7078750I40000J0D01*
G01*
X2580000Y6697750D02*
G75*
G02*
X2500000Y6697750I-40000J0D01*
G01*
X2500000Y6697750D02*
G75*
G02*
X2580000Y6697750I40000J0D01*
G01*
X2580000Y5173750D02*
G75*
G02*
X2500000Y5173750I-40000J0D01*
G01*
X2500000Y5173750D02*
G75*
G02*
X2580000Y5173750I40000J0D01*
G01*
X2580000Y4792750D02*
G75*
G02*
X2500000Y4792750I-40000J0D01*
G01*
X2500000Y4792750D02*
G75*
G02*
X2580000Y4792750I40000J0D01*
G01*
X2580000Y3141750D02*
G75*
G02*
X2500000Y3141750I-40000J0D01*
G01*
X2500000Y3141750D02*
G75*
G02*
X2580000Y3141750I40000J0D01*
G01*
X2580000Y2760750D02*
G75*
G02*
X2500000Y2760750I-40000J0D01*
G01*
X2500000Y2760750D02*
G75*
G02*
X2580000Y2760750I40000J0D01*
G01*
X2580000Y1109750D02*
G75*
G02*
X2500000Y1109750I-40000J0D01*
G01*
X2500000Y1109750D02*
G75*
G02*
X2580000Y1109750I40000J0D01*
G01*
X2580000Y728750D02*
G75*
G02*
X2500000Y728750I-40000J0D01*
G01*
X2500000Y728750D02*
G75*
G02*
X2580000Y728750I40000J0D01*
G01*
X2707000Y7269250D02*
G75*
G02*
X2627000Y7269250I-40000J0D01*
G01*
X2627000Y7269250D02*
G75*
G02*
X2707000Y7269250I40000J0D01*
G01*
X2707000Y6888250D02*
G75*
G02*
X2627000Y6888250I-40000J0D01*
G01*
X2627000Y6888250D02*
G75*
G02*
X2707000Y6888250I40000J0D01*
G01*
X2707000Y5364250D02*
G75*
G02*
X2627000Y5364250I-40000J0D01*
G01*
X2627000Y5364250D02*
G75*
G02*
X2707000Y5364250I40000J0D01*
G01*
X2707000Y4983250D02*
G75*
G02*
X2627000Y4983250I-40000J0D01*
G01*
X2627000Y4983250D02*
G75*
G02*
X2707000Y4983250I40000J0D01*
G01*
X2707000Y3332250D02*
G75*
G02*
X2627000Y3332250I-40000J0D01*
G01*
X2627000Y3332250D02*
G75*
G02*
X2707000Y3332250I40000J0D01*
G01*
X2707000Y2951250D02*
G75*
G02*
X2627000Y2951250I-40000J0D01*
G01*
X2627000Y2951250D02*
G75*
G02*
X2707000Y2951250I40000J0D01*
G01*
X2707000Y1300250D02*
G75*
G02*
X2627000Y1300250I-40000J0D01*
G01*
X2627000Y1300250D02*
G75*
G02*
X2707000Y1300250I40000J0D01*
G01*
X2707000Y919250D02*
G75*
G02*
X2627000Y919250I-40000J0D01*
G01*
X2627000Y919250D02*
G75*
G02*
X2707000Y919250I40000J0D01*
G01*
X2834000Y7078750D02*
G75*
G02*
X2754000Y7078750I-40000J0D01*
G01*
X2754000Y7078750D02*
G75*
G02*
X2834000Y7078750I40000J0D01*
G01*
X2834000Y6697750D02*
G75*
G02*
X2754000Y6697750I-40000J0D01*
G01*
X2754000Y6697750D02*
G75*
G02*
X2834000Y6697750I40000J0D01*
G01*
X2834000Y5173750D02*
G75*
G02*
X2754000Y5173750I-40000J0D01*
G01*
X2754000Y5173750D02*
G75*
G02*
X2834000Y5173750I40000J0D01*
G01*
X2834000Y4792750D02*
G75*
G02*
X2754000Y4792750I-40000J0D01*
G01*
X2754000Y4792750D02*
G75*
G02*
X2834000Y4792750I40000J0D01*
G01*
X2834000Y3141750D02*
G75*
G02*
X2754000Y3141750I-40000J0D01*
G01*
X2754000Y3141750D02*
G75*
G02*
X2834000Y3141750I40000J0D01*
G01*
X2834000Y2760750D02*
G75*
G02*
X2754000Y2760750I-40000J0D01*
G01*
X2754000Y2760750D02*
G75*
G02*
X2834000Y2760750I40000J0D01*
G01*
X2834000Y1109750D02*
G75*
G02*
X2754000Y1109750I-40000J0D01*
G01*
X2754000Y1109750D02*
G75*
G02*
X2834000Y1109750I40000J0D01*
G01*
X2834000Y728750D02*
G75*
G02*
X2754000Y728750I-40000J0D01*
G01*
X2754000Y728750D02*
G75*
G02*
X2834000Y728750I40000J0D01*
G01*
X2961000Y7269250D02*
G75*
G02*
X2881000Y7269250I-40000J0D01*
G01*
X2881000Y7269250D02*
G75*
G02*
X2961000Y7269250I40000J0D01*
G01*
X2961000Y6888250D02*
G75*
G02*
X2881000Y6888250I-40000J0D01*
G01*
X2881000Y6888250D02*
G75*
G02*
X2961000Y6888250I40000J0D01*
G01*
X2961000Y5364250D02*
G75*
G02*
X2881000Y5364250I-40000J0D01*
G01*
X2881000Y5364250D02*
G75*
G02*
X2961000Y5364250I40000J0D01*
G01*
X2961000Y4983250D02*
G75*
G02*
X2881000Y4983250I-40000J0D01*
G01*
X2881000Y4983250D02*
G75*
G02*
X2961000Y4983250I40000J0D01*
G01*
X2961000Y3332250D02*
G75*
G02*
X2881000Y3332250I-40000J0D01*
G01*
X2881000Y3332250D02*
G75*
G02*
X2961000Y3332250I40000J0D01*
G01*
X2961000Y2951250D02*
G75*
G02*
X2881000Y2951250I-40000J0D01*
G01*
X2881000Y2951250D02*
G75*
G02*
X2961000Y2951250I40000J0D01*
G01*
X2961000Y1300250D02*
G75*
G02*
X2881000Y1300250I-40000J0D01*
G01*
X2881000Y1300250D02*
G75*
G02*
X2961000Y1300250I40000J0D01*
G01*
X2961000Y919250D02*
G75*
G02*
X2881000Y919250I-40000J0D01*
G01*
X2881000Y919250D02*
G75*
G02*
X2961000Y919250I40000J0D01*
G01*
X3088000Y7078750D02*
G75*
G02*
X3008000Y7078750I-40000J0D01*
G01*
X3008000Y7078750D02*
G75*
G02*
X3088000Y7078750I40000J0D01*
G01*
X3088000Y6697750D02*
G75*
G02*
X3008000Y6697750I-40000J0D01*
G01*
X3008000Y6697750D02*
G75*
G02*
X3088000Y6697750I40000J0D01*
G01*
X3088000Y5173750D02*
G75*
G02*
X3008000Y5173750I-40000J0D01*
G01*
X3008000Y5173750D02*
G75*
G02*
X3088000Y5173750I40000J0D01*
G01*
X3088000Y4792750D02*
G75*
G02*
X3008000Y4792750I-40000J0D01*
G01*
X3008000Y4792750D02*
G75*
G02*
X3088000Y4792750I40000J0D01*
G01*
X3088000Y3141750D02*
G75*
G02*
X3008000Y3141750I-40000J0D01*
G01*
X3008000Y3141750D02*
G75*
G02*
X3088000Y3141750I40000J0D01*
G01*
X3088000Y2760750D02*
G75*
G02*
X3008000Y2760750I-40000J0D01*
G01*
X3008000Y2760750D02*
G75*
G02*
X3088000Y2760750I40000J0D01*
G01*
X3088000Y1109750D02*
G75*
G02*
X3008000Y1109750I-40000J0D01*
G01*
X3008000Y1109750D02*
G75*
G02*
X3088000Y1109750I40000J0D01*
G01*
X3088000Y728750D02*
G75*
G02*
X3008000Y728750I-40000J0D01*
G01*
X3008000Y728750D02*
G75*
G02*
X3088000Y728750I40000J0D01*
G01*
X3215000Y7269250D02*
G75*
G02*
X3135000Y7269250I-40000J0D01*
G01*
X3135000Y7269250D02*
G75*
G02*
X3215000Y7269250I40000J0D01*
G01*
X3215000Y6888250D02*
G75*
G02*
X3135000Y6888250I-40000J0D01*
G01*
X3135000Y6888250D02*
G75*
G02*
X3215000Y6888250I40000J0D01*
G01*
X3215000Y5364250D02*
G75*
G02*
X3135000Y5364250I-40000J0D01*
G01*
X3135000Y5364250D02*
G75*
G02*
X3215000Y5364250I40000J0D01*
G01*
X3215000Y4983250D02*
G75*
G02*
X3135000Y4983250I-40000J0D01*
G01*
X3135000Y4983250D02*
G75*
G02*
X3215000Y4983250I40000J0D01*
G01*
X3215000Y3332250D02*
G75*
G02*
X3135000Y3332250I-40000J0D01*
G01*
X3135000Y3332250D02*
G75*
G02*
X3215000Y3332250I40000J0D01*
G01*
X3215000Y2951250D02*
G75*
G02*
X3135000Y2951250I-40000J0D01*
G01*
X3135000Y2951250D02*
G75*
G02*
X3215000Y2951250I40000J0D01*
G01*
X3215000Y1300250D02*
G75*
G02*
X3135000Y1300250I-40000J0D01*
G01*
X3135000Y1300250D02*
G75*
G02*
X3215000Y1300250I40000J0D01*
G01*
X3215000Y919250D02*
G75*
G02*
X3135000Y919250I-40000J0D01*
G01*
X3135000Y919250D02*
G75*
G02*
X3215000Y919250I40000J0D01*
G01*
X3342000Y7078750D02*
G75*
G02*
X3262000Y7078750I-40000J0D01*
G01*
X3262000Y7078750D02*
G75*
G02*
X3342000Y7078750I40000J0D01*
G01*
X3342000Y6697750D02*
G75*
G02*
X3262000Y6697750I-40000J0D01*
G01*
X3262000Y6697750D02*
G75*
G02*
X3342000Y6697750I40000J0D01*
G01*
X3342000Y5173750D02*
G75*
G02*
X3262000Y5173750I-40000J0D01*
G01*
X3262000Y5173750D02*
G75*
G02*
X3342000Y5173750I40000J0D01*
G01*
X3342000Y4792750D02*
G75*
G02*
X3262000Y4792750I-40000J0D01*
G01*
X3262000Y4792750D02*
G75*
G02*
X3342000Y4792750I40000J0D01*
G01*
X3342000Y3141750D02*
G75*
G02*
X3262000Y3141750I-40000J0D01*
G01*
X3262000Y3141750D02*
G75*
G02*
X3342000Y3141750I40000J0D01*
G01*
X3342000Y2760750D02*
G75*
G02*
X3262000Y2760750I-40000J0D01*
G01*
X3262000Y2760750D02*
G75*
G02*
X3342000Y2760750I40000J0D01*
G01*
X3342000Y1109750D02*
G75*
G02*
X3262000Y1109750I-40000J0D01*
G01*
X3262000Y1109750D02*
G75*
G02*
X3342000Y1109750I40000J0D01*
G01*
X3342000Y728750D02*
G75*
G02*
X3262000Y728750I-40000J0D01*
G01*
X3262000Y728750D02*
G75*
G02*
X3342000Y728750I40000J0D01*
G01*
X3469000Y7269250D02*
G75*
G02*
X3389000Y7269250I-40000J0D01*
G01*
X3389000Y7269250D02*
G75*
G02*
X3469000Y7269250I40000J0D01*
G01*
X3469000Y6888250D02*
G75*
G02*
X3389000Y6888250I-40000J0D01*
G01*
X3389000Y6888250D02*
G75*
G02*
X3469000Y6888250I40000J0D01*
G01*
X3469000Y5364250D02*
G75*
G02*
X3389000Y5364250I-40000J0D01*
G01*
X3389000Y5364250D02*
G75*
G02*
X3469000Y5364250I40000J0D01*
G01*
X3469000Y4983250D02*
G75*
G02*
X3389000Y4983250I-40000J0D01*
G01*
X3389000Y4983250D02*
G75*
G02*
X3469000Y4983250I40000J0D01*
G01*
X3469000Y3332250D02*
G75*
G02*
X3389000Y3332250I-40000J0D01*
G01*
X3389000Y3332250D02*
G75*
G02*
X3469000Y3332250I40000J0D01*
G01*
X3469000Y2951250D02*
G75*
G02*
X3389000Y2951250I-40000J0D01*
G01*
X3389000Y2951250D02*
G75*
G02*
X3469000Y2951250I40000J0D01*
G01*
X3469000Y1300250D02*
G75*
G02*
X3389000Y1300250I-40000J0D01*
G01*
X3389000Y1300250D02*
G75*
G02*
X3469000Y1300250I40000J0D01*
G01*
X3469000Y919250D02*
G75*
G02*
X3389000Y919250I-40000J0D01*
G01*
X3389000Y919250D02*
G75*
G02*
X3469000Y919250I40000J0D01*
G01*
X3596000Y7078750D02*
G75*
G02*
X3516000Y7078750I-40000J0D01*
G01*
X3516000Y7078750D02*
G75*
G02*
X3596000Y7078750I40000J0D01*
G01*
X3596000Y6697750D02*
G75*
G02*
X3516000Y6697750I-40000J0D01*
G01*
X3516000Y6697750D02*
G75*
G02*
X3596000Y6697750I40000J0D01*
G01*
X3596000Y5173750D02*
G75*
G02*
X3516000Y5173750I-40000J0D01*
G01*
X3516000Y5173750D02*
G75*
G02*
X3596000Y5173750I40000J0D01*
G01*
X3596000Y4792750D02*
G75*
G02*
X3516000Y4792750I-40000J0D01*
G01*
X3516000Y4792750D02*
G75*
G02*
X3596000Y4792750I40000J0D01*
G01*
X3596000Y3141750D02*
G75*
G02*
X3516000Y3141750I-40000J0D01*
G01*
X3516000Y3141750D02*
G75*
G02*
X3596000Y3141750I40000J0D01*
G01*
X3596000Y2760750D02*
G75*
G02*
X3516000Y2760750I-40000J0D01*
G01*
X3516000Y2760750D02*
G75*
G02*
X3596000Y2760750I40000J0D01*
G01*
X3596000Y1109750D02*
G75*
G02*
X3516000Y1109750I-40000J0D01*
G01*
X3516000Y1109750D02*
G75*
G02*
X3596000Y1109750I40000J0D01*
G01*
X3596000Y728750D02*
G75*
G02*
X3516000Y728750I-40000J0D01*
G01*
X3516000Y728750D02*
G75*
G02*
X3596000Y728750I40000J0D01*
G01*
X3723000Y7269250D02*
G75*
G02*
X3643000Y7269250I-40000J0D01*
G01*
X3643000Y7269250D02*
G75*
G02*
X3723000Y7269250I40000J0D01*
G01*
X3723000Y6888250D02*
G75*
G02*
X3643000Y6888250I-40000J0D01*
G01*
X3643000Y6888250D02*
G75*
G02*
X3723000Y6888250I40000J0D01*
G01*
X3723000Y5364250D02*
G75*
G02*
X3643000Y5364250I-40000J0D01*
G01*
X3643000Y5364250D02*
G75*
G02*
X3723000Y5364250I40000J0D01*
G01*
X3723000Y4983250D02*
G75*
G02*
X3643000Y4983250I-40000J0D01*
G01*
X3643000Y4983250D02*
G75*
G02*
X3723000Y4983250I40000J0D01*
G01*
X3723000Y3332250D02*
G75*
G02*
X3643000Y3332250I-40000J0D01*
G01*
X3643000Y3332250D02*
G75*
G02*
X3723000Y3332250I40000J0D01*
G01*
X3723000Y2951250D02*
G75*
G02*
X3643000Y2951250I-40000J0D01*
G01*
X3643000Y2951250D02*
G75*
G02*
X3723000Y2951250I40000J0D01*
G01*
X3723000Y1300250D02*
G75*
G02*
X3643000Y1300250I-40000J0D01*
G01*
X3643000Y1300250D02*
G75*
G02*
X3723000Y1300250I40000J0D01*
G01*
X3723000Y919250D02*
G75*
G02*
X3643000Y919250I-40000J0D01*
G01*
X3643000Y919250D02*
G75*
G02*
X3723000Y919250I40000J0D01*
G01*
X3850000Y7078750D02*
G75*
G02*
X3770000Y7078750I-40000J0D01*
G01*
X3770000Y7078750D02*
G75*
G02*
X3850000Y7078750I40000J0D01*
G01*
X3850000Y6697750D02*
G75*
G02*
X3770000Y6697750I-40000J0D01*
G01*
X3770000Y6697750D02*
G75*
G02*
X3850000Y6697750I40000J0D01*
G01*
X3850000Y5173750D02*
G75*
G02*
X3770000Y5173750I-40000J0D01*
G01*
X3770000Y5173750D02*
G75*
G02*
X3850000Y5173750I40000J0D01*
G01*
X3850000Y4792750D02*
G75*
G02*
X3770000Y4792750I-40000J0D01*
G01*
X3770000Y4792750D02*
G75*
G02*
X3850000Y4792750I40000J0D01*
G01*
X3850000Y3141750D02*
G75*
G02*
X3770000Y3141750I-40000J0D01*
G01*
X3770000Y3141750D02*
G75*
G02*
X3850000Y3141750I40000J0D01*
G01*
X3850000Y2760750D02*
G75*
G02*
X3770000Y2760750I-40000J0D01*
G01*
X3770000Y2760750D02*
G75*
G02*
X3850000Y2760750I40000J0D01*
G01*
X3850000Y1109750D02*
G75*
G02*
X3770000Y1109750I-40000J0D01*
G01*
X3770000Y1109750D02*
G75*
G02*
X3850000Y1109750I40000J0D01*
G01*
X3850000Y728750D02*
G75*
G02*
X3770000Y728750I-40000J0D01*
G01*
X3770000Y728750D02*
G75*
G02*
X3850000Y728750I40000J0D01*
G01*
X3977000Y7269250D02*
G75*
G02*
X3897000Y7269250I-40000J0D01*
G01*
X3897000Y7269250D02*
G75*
G02*
X3977000Y7269250I40000J0D01*
G01*
X3977000Y6888250D02*
G75*
G02*
X3897000Y6888250I-40000J0D01*
G01*
X3897000Y6888250D02*
G75*
G02*
X3977000Y6888250I40000J0D01*
G01*
X3977000Y5364250D02*
G75*
G02*
X3897000Y5364250I-40000J0D01*
G01*
X3897000Y5364250D02*
G75*
G02*
X3977000Y5364250I40000J0D01*
G01*
X3977000Y4983250D02*
G75*
G02*
X3897000Y4983250I-40000J0D01*
G01*
X3897000Y4983250D02*
G75*
G02*
X3977000Y4983250I40000J0D01*
G01*
X3977000Y3332250D02*
G75*
G02*
X3897000Y3332250I-40000J0D01*
G01*
X3897000Y3332250D02*
G75*
G02*
X3977000Y3332250I40000J0D01*
G01*
X3977000Y2951250D02*
G75*
G02*
X3897000Y2951250I-40000J0D01*
G01*
X3897000Y2951250D02*
G75*
G02*
X3977000Y2951250I40000J0D01*
G01*
X3977000Y1300250D02*
G75*
G02*
X3897000Y1300250I-40000J0D01*
G01*
X3897000Y1300250D02*
G75*
G02*
X3977000Y1300250I40000J0D01*
G01*
X3977000Y919250D02*
G75*
G02*
X3897000Y919250I-40000J0D01*
G01*
X3897000Y919250D02*
G75*
G02*
X3977000Y919250I40000J0D01*
G01*
X4104000Y7078750D02*
G75*
G02*
X4024000Y7078750I-40000J0D01*
G01*
X4024000Y7078750D02*
G75*
G02*
X4104000Y7078750I40000J0D01*
G01*
X4104000Y6697750D02*
G75*
G02*
X4024000Y6697750I-40000J0D01*
G01*
X4024000Y6697750D02*
G75*
G02*
X4104000Y6697750I40000J0D01*
G01*
X4104000Y5173750D02*
G75*
G02*
X4024000Y5173750I-40000J0D01*
G01*
X4024000Y5173750D02*
G75*
G02*
X4104000Y5173750I40000J0D01*
G01*
X4104000Y4792750D02*
G75*
G02*
X4024000Y4792750I-40000J0D01*
G01*
X4024000Y4792750D02*
G75*
G02*
X4104000Y4792750I40000J0D01*
G01*
X4104000Y3141750D02*
G75*
G02*
X4024000Y3141750I-40000J0D01*
G01*
X4024000Y3141750D02*
G75*
G02*
X4104000Y3141750I40000J0D01*
G01*
X4104000Y2760750D02*
G75*
G02*
X4024000Y2760750I-40000J0D01*
G01*
X4024000Y2760750D02*
G75*
G02*
X4104000Y2760750I40000J0D01*
G01*
X4104000Y1109750D02*
G75*
G02*
X4024000Y1109750I-40000J0D01*
G01*
X4024000Y1109750D02*
G75*
G02*
X4104000Y1109750I40000J0D01*
G01*
X4104000Y728750D02*
G75*
G02*
X4024000Y728750I-40000J0D01*
G01*
X4024000Y728750D02*
G75*
G02*
X4104000Y728750I40000J0D01*
G01*
X4231000Y7269250D02*
G75*
G02*
X4151000Y7269250I-40000J0D01*
G01*
X4151000Y7269250D02*
G75*
G02*
X4231000Y7269250I40000J0D01*
G01*
X4231000Y6888250D02*
G75*
G02*
X4151000Y6888250I-40000J0D01*
G01*
X4151000Y6888250D02*
G75*
G02*
X4231000Y6888250I40000J0D01*
G01*
X4231000Y5364250D02*
G75*
G02*
X4151000Y5364250I-40000J0D01*
G01*
X4151000Y5364250D02*
G75*
G02*
X4231000Y5364250I40000J0D01*
G01*
X4231000Y4983250D02*
G75*
G02*
X4151000Y4983250I-40000J0D01*
G01*
X4151000Y4983250D02*
G75*
G02*
X4231000Y4983250I40000J0D01*
G01*
X4231000Y3332250D02*
G75*
G02*
X4151000Y3332250I-40000J0D01*
G01*
X4151000Y3332250D02*
G75*
G02*
X4231000Y3332250I40000J0D01*
G01*
X4231000Y2951250D02*
G75*
G02*
X4151000Y2951250I-40000J0D01*
G01*
X4151000Y2951250D02*
G75*
G02*
X4231000Y2951250I40000J0D01*
G01*
X4231000Y1300250D02*
G75*
G02*
X4151000Y1300250I-40000J0D01*
G01*
X4151000Y1300250D02*
G75*
G02*
X4231000Y1300250I40000J0D01*
G01*
X4231000Y919250D02*
G75*
G02*
X4151000Y919250I-40000J0D01*
G01*
X4151000Y919250D02*
G75*
G02*
X4231000Y919250I40000J0D01*
G01*
X4358000Y7079250D02*
G75*
G02*
X4278000Y7079250I-40000J0D01*
G01*
X4278000Y7079250D02*
G75*
G02*
X4358000Y7079250I40000J0D01*
G01*
X4358000Y6697750D02*
G75*
G02*
X4278000Y6697750I-40000J0D01*
G01*
X4278000Y6697750D02*
G75*
G02*
X4358000Y6697750I40000J0D01*
G01*
X4358000Y5174250D02*
G75*
G02*
X4278000Y5174250I-40000J0D01*
G01*
X4278000Y5174250D02*
G75*
G02*
X4358000Y5174250I40000J0D01*
G01*
X4358000Y4792750D02*
G75*
G02*
X4278000Y4792750I-40000J0D01*
G01*
X4278000Y4792750D02*
G75*
G02*
X4358000Y4792750I40000J0D01*
G01*
X4358000Y3142250D02*
G75*
G02*
X4278000Y3142250I-40000J0D01*
G01*
X4278000Y3142250D02*
G75*
G02*
X4358000Y3142250I40000J0D01*
G01*
X4358000Y2760750D02*
G75*
G02*
X4278000Y2760750I-40000J0D01*
G01*
X4278000Y2760750D02*
G75*
G02*
X4358000Y2760750I40000J0D01*
G01*
X4358000Y1110250D02*
G75*
G02*
X4278000Y1110250I-40000J0D01*
G01*
X4278000Y1110250D02*
G75*
G02*
X4358000Y1110250I40000J0D01*
G01*
X4358000Y728750D02*
G75*
G02*
X4278000Y728750I-40000J0D01*
G01*
X4278000Y728750D02*
G75*
G02*
X4358000Y728750I40000J0D01*
G01*
X4485000Y7270750D02*
G75*
G02*
X4405000Y7270750I-40000J0D01*
G01*
X4405000Y7270750D02*
G75*
G02*
X4485000Y7270750I40000J0D01*
G01*
X4485000Y6889250D02*
G75*
G02*
X4405000Y6889250I-40000J0D01*
G01*
X4405000Y6889250D02*
G75*
G02*
X4485000Y6889250I40000J0D01*
G01*
X4485000Y5365750D02*
G75*
G02*
X4405000Y5365750I-40000J0D01*
G01*
X4405000Y5365750D02*
G75*
G02*
X4485000Y5365750I40000J0D01*
G01*
X4485000Y4984250D02*
G75*
G02*
X4405000Y4984250I-40000J0D01*
G01*
X4405000Y4984250D02*
G75*
G02*
X4485000Y4984250I40000J0D01*
G01*
X4485000Y3333750D02*
G75*
G02*
X4405000Y3333750I-40000J0D01*
G01*
X4405000Y3333750D02*
G75*
G02*
X4485000Y3333750I40000J0D01*
G01*
X4485000Y2952250D02*
G75*
G02*
X4405000Y2952250I-40000J0D01*
G01*
X4405000Y2952250D02*
G75*
G02*
X4485000Y2952250I40000J0D01*
G01*
X4485000Y1301750D02*
G75*
G02*
X4405000Y1301750I-40000J0D01*
G01*
X4405000Y1301750D02*
G75*
G02*
X4485000Y1301750I40000J0D01*
G01*
X4485000Y920250D02*
G75*
G02*
X4405000Y920250I-40000J0D01*
G01*
X4405000Y920250D02*
G75*
G02*
X4485000Y920250I40000J0D01*
G01*
X8001000Y7221220D02*
X8001000Y7129780D01*
X7955280Y7175500D02*
X8046720Y7175500D01*
X8001000Y6967220D02*
X8001000Y6875780D01*
X7955280Y6921500D02*
X8046720Y6921500D01*
X8001000Y6713220D02*
X8001000Y6621780D01*
X7955280Y6667500D02*
X8046720Y6667500D01*
X8001000Y5316220D02*
X8001000Y5224780D01*
X7955280Y5270500D02*
X8046720Y5270500D01*
X8001000Y5062220D02*
X8001000Y4970780D01*
X7955280Y5016500D02*
X8046720Y5016500D01*
X8001000Y4808220D02*
X8001000Y4716780D01*
X7955280Y4762500D02*
X8046720Y4762500D01*
X8128000Y3411220D02*
X8128000Y3319780D01*
X8082280Y3365500D02*
X8173720Y3365500D01*
X8128000Y3157220D02*
X8128000Y3065780D01*
X8082280Y3111500D02*
X8173720Y3111500D01*
X8128000Y2903220D02*
X8128000Y2811780D01*
X8082280Y2857500D02*
X8173720Y2857500D01*
X8128000Y2649220D02*
X8128000Y2557780D01*
X8082280Y2603500D02*
X8173720Y2603500D01*
X8382000Y3411220D02*
X8382000Y3319780D01*
X8336280Y3365500D02*
X8427720Y3365500D01*
X8382000Y3157220D02*
X8382000Y3065780D01*
X8336280Y3111500D02*
X8427720Y3111500D01*
X8382000Y2903220D02*
X8382000Y2811780D01*
X8336280Y2857500D02*
X8427720Y2857500D01*
X8382000Y2649220D02*
X8382000Y2557780D01*
X8336280Y2603500D02*
X8427720Y2603500D01*
X8509000Y7221220D02*
X8509000Y7129780D01*
X8463280Y7175500D02*
X8554720Y7175500D01*
X8509000Y6967220D02*
X8509000Y6875780D01*
X8463280Y6921500D02*
X8554720Y6921500D01*
X8509000Y6713220D02*
X8509000Y6621780D01*
X8463280Y6667500D02*
X8554720Y6667500D01*
X8509000Y5316220D02*
X8509000Y5224780D01*
X8463280Y5270500D02*
X8554720Y5270500D01*
X8509000Y5062220D02*
X8509000Y4970780D01*
X8463280Y5016500D02*
X8554720Y5016500D01*
X8509000Y4808220D02*
X8509000Y4716780D01*
X8463280Y4762500D02*
X8554720Y4762500D01*
X9017000Y7221220D02*
X9017000Y7129780D01*
X8971280Y7175500D02*
X9062720Y7175500D01*
X9017000Y6967220D02*
X9017000Y6875780D01*
X8971280Y6921500D02*
X9062720Y6921500D01*
X9017000Y6713220D02*
X9017000Y6621780D01*
X8971280Y6667500D02*
X9062720Y6667500D01*
X9017000Y5316220D02*
X9017000Y5224780D01*
X8971280Y5270500D02*
X9062720Y5270500D01*
X9017000Y5062220D02*
X9017000Y4970780D01*
X8971280Y5016500D02*
X9062720Y5016500D01*
X9017000Y4808220D02*
X9017000Y4716780D01*
X8971280Y4762500D02*
X9062720Y4762500D01*
X9144000Y3411220D02*
X9144000Y3319780D01*
X9098280Y3365500D02*
X9189720Y3365500D01*
X9144000Y3157220D02*
X9144000Y3065780D01*
X9098280Y3111500D02*
X9189720Y3111500D01*
X9144000Y2903220D02*
X9144000Y2811780D01*
X9098280Y2857500D02*
X9189720Y2857500D01*
X9144000Y2649220D02*
X9144000Y2557780D01*
X9098280Y2603500D02*
X9189720Y2603500D01*
X9398000Y3411220D02*
X9398000Y3319780D01*
X9352280Y3365500D02*
X9443720Y3365500D01*
X9398000Y3157220D02*
X9398000Y3065780D01*
X9352280Y3111500D02*
X9443720Y3111500D01*
X9398000Y2903220D02*
X9398000Y2811780D01*
X9352280Y2857500D02*
X9443720Y2857500D01*
X9398000Y2649220D02*
X9398000Y2557780D01*
X9352280Y2603500D02*
X9443720Y2603500D01*
X9525000Y7221220D02*
X9525000Y7129780D01*
X9479280Y7175500D02*
X9570720Y7175500D01*
X9525000Y6967220D02*
X9525000Y6875780D01*
X9479280Y6921500D02*
X9570720Y6921500D01*
X9525000Y6713220D02*
X9525000Y6621780D01*
X9479280Y6667500D02*
X9570720Y6667500D01*
X9525000Y5316220D02*
X9525000Y5224780D01*
X9479280Y5270500D02*
X9570720Y5270500D01*
X9525000Y5062220D02*
X9525000Y4970780D01*
X9479280Y5016500D02*
X9570720Y5016500D01*
X9525000Y4808220D02*
X9525000Y4716780D01*
X9479280Y4762500D02*
X9570720Y4762500D01*
D13*
X903282Y6907217D02*
X903282Y7062782D01*
X747717Y7062782D01*
X747717Y6907217D01*
X903282Y6907217D01*
X903282Y5002218D02*
X903282Y5157783D01*
X747717Y5157783D01*
X747717Y5002218D01*
X903282Y5002218D01*
X903282Y2970217D02*
X903282Y3125782D01*
X747717Y3125782D01*
X747717Y2970217D01*
X903282Y2970217D01*
X903282Y938217D02*
X903282Y1093783D01*
X747717Y1093783D01*
X747717Y938217D01*
X903282Y938217D01*
X5094283Y6907217D02*
X5094283Y7062782D01*
X4938718Y7062782D01*
X4938718Y6907217D01*
X5094283Y6907217D01*
X5094283Y5002218D02*
X5094283Y5157783D01*
X4938718Y5157783D01*
X4938718Y5002218D01*
X5094283Y5002218D01*
X5094283Y2970217D02*
X5094283Y3125782D01*
X4938718Y3125782D01*
X4938718Y2970217D01*
X5094283Y2970217D01*
X5094283Y938217D02*
X5094283Y1093783D01*
X4938718Y1093783D01*
X4938718Y938217D01*
X5094283Y938217D01*
D14*
X127000Y7809000D02*
X192000Y7874000D01*
X127000Y7939000D01*
X62000Y7874000D01*
X127000Y7809000D01*
X127000Y62000D02*
X192000Y127000D01*
X127000Y192000D01*
X62000Y127000D01*
X127000Y62000D01*
X9855200Y7809000D02*
X9920200Y7874000D01*
X9855200Y7939000D01*
X9790200Y7874000D01*
X9855200Y7809000D01*
X9855200Y62000D02*
X9920200Y127000D01*
X9855200Y192000D01*
X9790200Y127000D01*
X9855200Y62000D01*
D11*
X258277Y-313984D02*
X258277Y-113984D01*
X258277Y-113984D02*
X305896Y-113984D01*
X305896Y-113984D02*
X334467Y-123508D01*
X334467Y-123508D02*
X353515Y-142555D01*
X353515Y-142555D02*
X363039Y-161603D01*
X363039Y-161603D02*
X372562Y-199698D01*
X372562Y-199698D02*
X372562Y-228269D01*
X372562Y-228269D02*
X363039Y-266365D01*
X363039Y-266365D02*
X353515Y-285412D01*
X353515Y-285412D02*
X334467Y-304460D01*
X334467Y-304460D02*
X305896Y-313984D01*
X305896Y-313984D02*
X258277Y-313984D01*
X458277Y-313984D02*
X458277Y-180650D01*
X458277Y-218746D02*
X467801Y-199698D01*
X467801Y-199698D02*
X477324Y-190174D01*
X477324Y-190174D02*
X496372Y-180650D01*
X496372Y-180650D02*
X515420Y-180650D01*
X582086Y-313984D02*
X582086Y-180650D01*
X582086Y-113984D02*
X572563Y-123508D01*
X572563Y-123508D02*
X582086Y-133031D01*
X582086Y-133031D02*
X591610Y-123508D01*
X591610Y-123508D02*
X582086Y-113984D01*
X582086Y-113984D02*
X582086Y-133031D01*
X705896Y-313984D02*
X686848Y-304460D01*
X686848Y-304460D02*
X677324Y-285412D01*
X677324Y-285412D02*
X677324Y-113984D01*
X810658Y-313984D02*
X791610Y-304460D01*
X791610Y-304460D02*
X782086Y-285412D01*
X782086Y-285412D02*
X782086Y-113984D01*
X1039229Y-313984D02*
X1039229Y-113984D01*
X1039229Y-113984D02*
X1105896Y-256841D01*
X1105896Y-256841D02*
X1172563Y-113984D01*
X1172563Y-113984D02*
X1172563Y-313984D01*
X1353515Y-313984D02*
X1353515Y-209222D01*
X1353515Y-209222D02*
X1343991Y-190174D01*
X1343991Y-190174D02*
X1324944Y-180650D01*
X1324944Y-180650D02*
X1286848Y-180650D01*
X1286848Y-180650D02*
X1267801Y-190174D01*
X1353515Y-304460D02*
X1334467Y-313984D01*
X1334467Y-313984D02*
X1286848Y-313984D01*
X1286848Y-313984D02*
X1267801Y-304460D01*
X1267801Y-304460D02*
X1258277Y-285412D01*
X1258277Y-285412D02*
X1258277Y-266365D01*
X1258277Y-266365D02*
X1267801Y-247317D01*
X1267801Y-247317D02*
X1286848Y-237793D01*
X1286848Y-237793D02*
X1334467Y-237793D01*
X1334467Y-237793D02*
X1353515Y-228269D01*
X1448753Y-180650D02*
X1448753Y-380650D01*
X1448753Y-190174D02*
X1467801Y-180650D01*
X1467801Y-180650D02*
X1505896Y-180650D01*
X1505896Y-180650D02*
X1524943Y-190174D01*
X1524943Y-190174D02*
X1534467Y-199698D01*
X1534467Y-199698D02*
X1543991Y-218746D01*
X1543991Y-218746D02*
X1543991Y-275889D01*
X1543991Y-275889D02*
X1534467Y-294936D01*
X1534467Y-294936D02*
X1524943Y-304460D01*
X1524943Y-304460D02*
X1505896Y-313984D01*
X1505896Y-313984D02*
X1467801Y-313984D01*
X1467801Y-313984D02*
X1448753Y-304460D01*
X1629705Y-294936D02*
X1639229Y-304460D01*
X1639229Y-304460D02*
X1629705Y-313984D01*
X1629705Y-313984D02*
X1620182Y-304460D01*
X1620182Y-304460D02*
X1629705Y-294936D01*
X1629705Y-294936D02*
X1629705Y-313984D01*
X1629705Y-190174D02*
X1639229Y-199698D01*
X1639229Y-199698D02*
X1629705Y-209222D01*
X1629705Y-209222D02*
X1620182Y-199698D01*
X1620182Y-199698D02*
X1629705Y-190174D01*
X1629705Y-190174D02*
X1629705Y-209222D01*
D12*
X-52500Y-617500D02*
X-2500Y-667500D01*
X-2500Y-617500D02*
X-52500Y-667500D01*
D11*
X296372Y-533984D02*
X315420Y-533984D01*
X315420Y-533984D02*
X334467Y-543508D01*
X334467Y-543508D02*
X343991Y-553031D01*
X343991Y-553031D02*
X353515Y-572079D01*
X353515Y-572079D02*
X363039Y-610174D01*
X363039Y-610174D02*
X363039Y-657793D01*
X363039Y-657793D02*
X353515Y-695889D01*
X353515Y-695889D02*
X343991Y-714936D01*
X343991Y-714936D02*
X334467Y-724460D01*
X334467Y-724460D02*
X315420Y-733984D01*
X315420Y-733984D02*
X296372Y-733984D01*
X296372Y-733984D02*
X277324Y-724460D01*
X277324Y-724460D02*
X267801Y-714936D01*
X267801Y-714936D02*
X258277Y-695889D01*
X258277Y-695889D02*
X248753Y-657793D01*
X248753Y-657793D02*
X248753Y-610174D01*
X248753Y-610174D02*
X258277Y-572079D01*
X258277Y-572079D02*
X267801Y-553031D01*
X267801Y-553031D02*
X277324Y-543508D01*
X277324Y-543508D02*
X296372Y-533984D01*
X448753Y-714936D02*
X458277Y-724460D01*
X458277Y-724460D02*
X448753Y-733984D01*
X448753Y-733984D02*
X439229Y-724460D01*
X439229Y-724460D02*
X448753Y-714936D01*
X448753Y-714936D02*
X448753Y-733984D01*
X639229Y-533984D02*
X543991Y-533984D01*
X543991Y-533984D02*
X534467Y-629222D01*
X534467Y-629222D02*
X543991Y-619698D01*
X543991Y-619698D02*
X563039Y-610174D01*
X563039Y-610174D02*
X610658Y-610174D01*
X610658Y-610174D02*
X629705Y-619698D01*
X629705Y-619698D02*
X639229Y-629222D01*
X639229Y-629222D02*
X648753Y-648270D01*
X648753Y-648270D02*
X648753Y-695889D01*
X648753Y-695889D02*
X639229Y-714936D01*
X639229Y-714936D02*
X629705Y-724460D01*
X629705Y-724460D02*
X610658Y-733984D01*
X610658Y-733984D02*
X563039Y-733984D01*
X563039Y-733984D02*
X543991Y-724460D01*
X543991Y-724460D02*
X534467Y-714936D01*
X772562Y-533984D02*
X791610Y-533984D01*
X791610Y-533984D02*
X810658Y-543508D01*
X810658Y-543508D02*
X820182Y-553031D01*
X820182Y-553031D02*
X829705Y-572079D01*
X829705Y-572079D02*
X839229Y-610174D01*
X839229Y-610174D02*
X839229Y-657793D01*
X839229Y-657793D02*
X829705Y-695889D01*
X829705Y-695889D02*
X820182Y-714936D01*
X820182Y-714936D02*
X810658Y-724460D01*
X810658Y-724460D02*
X791610Y-733984D01*
X791610Y-733984D02*
X772562Y-733984D01*
X772562Y-733984D02*
X753515Y-724460D01*
X753515Y-724460D02*
X743991Y-714936D01*
X743991Y-714936D02*
X734467Y-695889D01*
X734467Y-695889D02*
X724943Y-657793D01*
X724943Y-657793D02*
X724943Y-610174D01*
X724943Y-610174D02*
X734467Y-572079D01*
X734467Y-572079D02*
X743991Y-553031D01*
X743991Y-553031D02*
X753515Y-543508D01*
X753515Y-543508D02*
X772562Y-533984D01*
X963039Y-533984D02*
X982086Y-533984D01*
X982086Y-533984D02*
X1001134Y-543508D01*
X1001134Y-543508D02*
X1010658Y-553031D01*
X1010658Y-553031D02*
X1020182Y-572079D01*
X1020182Y-572079D02*
X1029705Y-610174D01*
X1029705Y-610174D02*
X1029705Y-657793D01*
X1029705Y-657793D02*
X1020182Y-695889D01*
X1020182Y-695889D02*
X1010658Y-714936D01*
X1010658Y-714936D02*
X1001134Y-724460D01*
X1001134Y-724460D02*
X982086Y-733984D01*
X982086Y-733984D02*
X963039Y-733984D01*
X963039Y-733984D02*
X943991Y-724460D01*
X943991Y-724460D02*
X934467Y-714936D01*
X934467Y-714936D02*
X924943Y-695889D01*
X924943Y-695889D02*
X915420Y-657793D01*
X915420Y-657793D02*
X915420Y-610174D01*
X915420Y-610174D02*
X924943Y-572079D01*
X924943Y-572079D02*
X934467Y-553031D01*
X934467Y-553031D02*
X943991Y-543508D01*
X943991Y-543508D02*
X963039Y-533984D01*
X1115420Y-733984D02*
X1115420Y-600650D01*
X1115420Y-619698D02*
X1124944Y-610174D01*
X1124944Y-610174D02*
X1143991Y-600650D01*
X1143991Y-600650D02*
X1172563Y-600650D01*
X1172563Y-600650D02*
X1191610Y-610174D01*
X1191610Y-610174D02*
X1201134Y-629222D01*
X1201134Y-629222D02*
X1201134Y-733984D01*
X1201134Y-629222D02*
X1210658Y-610174D01*
X1210658Y-610174D02*
X1229705Y-600650D01*
X1229705Y-600650D02*
X1258277Y-600650D01*
X1258277Y-600650D02*
X1277325Y-610174D01*
X1277325Y-610174D02*
X1286848Y-629222D01*
X1286848Y-629222D02*
X1286848Y-733984D01*
X1382086Y-733984D02*
X1382086Y-600650D01*
X1382086Y-619698D02*
X1391610Y-610174D01*
X1391610Y-610174D02*
X1410658Y-600650D01*
X1410658Y-600650D02*
X1439229Y-600650D01*
X1439229Y-600650D02*
X1458277Y-610174D01*
X1458277Y-610174D02*
X1467801Y-629222D01*
X1467801Y-629222D02*
X1467801Y-733984D01*
X1467801Y-629222D02*
X1477324Y-610174D01*
X1477324Y-610174D02*
X1496372Y-600650D01*
X1496372Y-600650D02*
X1524943Y-600650D01*
X1524943Y-600650D02*
X1543991Y-610174D01*
X1543991Y-610174D02*
X1553515Y-629222D01*
X1553515Y-629222D02*
X1553515Y-733984D01*
X1943991Y-524460D02*
X1772563Y-781603D01*
X2201134Y-533984D02*
X2220182Y-533984D01*
X2220182Y-533984D02*
X2239229Y-543508D01*
X2239229Y-543508D02*
X2248753Y-553031D01*
X2248753Y-553031D02*
X2258277Y-572079D01*
X2258277Y-572079D02*
X2267801Y-610174D01*
X2267801Y-610174D02*
X2267801Y-657793D01*
X2267801Y-657793D02*
X2258277Y-695889D01*
X2258277Y-695889D02*
X2248753Y-714936D01*
X2248753Y-714936D02*
X2239229Y-724460D01*
X2239229Y-724460D02*
X2220182Y-733984D01*
X2220182Y-733984D02*
X2201134Y-733984D01*
X2201134Y-733984D02*
X2182087Y-724460D01*
X2182087Y-724460D02*
X2172563Y-714936D01*
X2172563Y-714936D02*
X2163039Y-695889D01*
X2163039Y-695889D02*
X2153515Y-657793D01*
X2153515Y-657793D02*
X2153515Y-610174D01*
X2153515Y-610174D02*
X2163039Y-572079D01*
X2163039Y-572079D02*
X2172563Y-553031D01*
X2172563Y-553031D02*
X2182087Y-543508D01*
X2182087Y-543508D02*
X2201134Y-533984D01*
X2353515Y-714936D02*
X2363039Y-724460D01*
X2363039Y-724460D02*
X2353515Y-733984D01*
X2353515Y-733984D02*
X2343991Y-724460D01*
X2343991Y-724460D02*
X2353515Y-714936D01*
X2353515Y-714936D02*
X2353515Y-733984D01*
X2486848Y-533984D02*
X2505896Y-533984D01*
X2505896Y-533984D02*
X2524944Y-543508D01*
X2524944Y-543508D02*
X2534468Y-553031D01*
X2534468Y-553031D02*
X2543991Y-572079D01*
X2543991Y-572079D02*
X2553515Y-610174D01*
X2553515Y-610174D02*
X2553515Y-657793D01*
X2553515Y-657793D02*
X2543991Y-695889D01*
X2543991Y-695889D02*
X2534468Y-714936D01*
X2534468Y-714936D02*
X2524944Y-724460D01*
X2524944Y-724460D02*
X2505896Y-733984D01*
X2505896Y-733984D02*
X2486848Y-733984D01*
X2486848Y-733984D02*
X2467801Y-724460D01*
X2467801Y-724460D02*
X2458277Y-714936D01*
X2458277Y-714936D02*
X2448753Y-695889D01*
X2448753Y-695889D02*
X2439229Y-657793D01*
X2439229Y-657793D02*
X2439229Y-610174D01*
X2439229Y-610174D02*
X2448753Y-572079D01*
X2448753Y-572079D02*
X2458277Y-553031D01*
X2458277Y-553031D02*
X2467801Y-543508D01*
X2467801Y-543508D02*
X2486848Y-533984D01*
X2743991Y-733984D02*
X2629706Y-733984D01*
X2686848Y-733984D02*
X2686848Y-533984D01*
X2686848Y-533984D02*
X2667801Y-562555D01*
X2667801Y-562555D02*
X2648753Y-581603D01*
X2648753Y-581603D02*
X2629706Y-591127D01*
X2839229Y-733984D02*
X2877325Y-733984D01*
X2877325Y-733984D02*
X2896372Y-724460D01*
X2896372Y-724460D02*
X2905896Y-714936D01*
X2905896Y-714936D02*
X2924944Y-686365D01*
X2924944Y-686365D02*
X2934467Y-648270D01*
X2934467Y-648270D02*
X2934467Y-572079D01*
X2934467Y-572079D02*
X2924944Y-553031D01*
X2924944Y-553031D02*
X2915420Y-543508D01*
X2915420Y-543508D02*
X2896372Y-533984D01*
X2896372Y-533984D02*
X2858277Y-533984D01*
X2858277Y-533984D02*
X2839229Y-543508D01*
X2839229Y-543508D02*
X2829706Y-553031D01*
X2829706Y-553031D02*
X2820182Y-572079D01*
X2820182Y-572079D02*
X2820182Y-619698D01*
X2820182Y-619698D02*
X2829706Y-638746D01*
X2829706Y-638746D02*
X2839229Y-648270D01*
X2839229Y-648270D02*
X2858277Y-657793D01*
X2858277Y-657793D02*
X2896372Y-657793D01*
X2896372Y-657793D02*
X2915420Y-648270D01*
X2915420Y-648270D02*
X2924944Y-638746D01*
X2924944Y-638746D02*
X2934467Y-619698D01*
X3001134Y-533984D02*
X3134467Y-533984D01*
X3134467Y-533984D02*
X3048753Y-733984D01*
X3201134Y-533984D02*
X3201134Y-572079D01*
X3277325Y-533984D02*
X3277325Y-572079D01*
X3572563Y-810174D02*
X3563039Y-800650D01*
X3563039Y-800650D02*
X3543991Y-772079D01*
X3543991Y-772079D02*
X3534468Y-753031D01*
X3534468Y-753031D02*
X3524944Y-724460D01*
X3524944Y-724460D02*
X3515420Y-676841D01*
X3515420Y-676841D02*
X3515420Y-638746D01*
X3515420Y-638746D02*
X3524944Y-591127D01*
X3524944Y-591127D02*
X3534468Y-562555D01*
X3534468Y-562555D02*
X3543991Y-543508D01*
X3543991Y-543508D02*
X3563039Y-514936D01*
X3563039Y-514936D02*
X3572563Y-505412D01*
X3677325Y-619698D02*
X3658277Y-610174D01*
X3658277Y-610174D02*
X3648753Y-600650D01*
X3648753Y-600650D02*
X3639229Y-581603D01*
X3639229Y-581603D02*
X3639229Y-572079D01*
X3639229Y-572079D02*
X3648753Y-553031D01*
X3648753Y-553031D02*
X3658277Y-543508D01*
X3658277Y-543508D02*
X3677325Y-533984D01*
X3677325Y-533984D02*
X3715420Y-533984D01*
X3715420Y-533984D02*
X3734468Y-543508D01*
X3734468Y-543508D02*
X3743991Y-553031D01*
X3743991Y-553031D02*
X3753515Y-572079D01*
X3753515Y-572079D02*
X3753515Y-581603D01*
X3753515Y-581603D02*
X3743991Y-600650D01*
X3743991Y-600650D02*
X3734468Y-610174D01*
X3734468Y-610174D02*
X3715420Y-619698D01*
X3715420Y-619698D02*
X3677325Y-619698D01*
X3677325Y-619698D02*
X3658277Y-629222D01*
X3658277Y-629222D02*
X3648753Y-638746D01*
X3648753Y-638746D02*
X3639229Y-657793D01*
X3639229Y-657793D02*
X3639229Y-695889D01*
X3639229Y-695889D02*
X3648753Y-714936D01*
X3648753Y-714936D02*
X3658277Y-724460D01*
X3658277Y-724460D02*
X3677325Y-733984D01*
X3677325Y-733984D02*
X3715420Y-733984D01*
X3715420Y-733984D02*
X3734468Y-724460D01*
X3734468Y-724460D02*
X3743991Y-714936D01*
X3743991Y-714936D02*
X3753515Y-695889D01*
X3753515Y-695889D02*
X3753515Y-657793D01*
X3753515Y-657793D02*
X3743991Y-638746D01*
X3743991Y-638746D02*
X3734468Y-629222D01*
X3734468Y-629222D02*
X3715420Y-619698D01*
X3829706Y-553031D02*
X3839229Y-543508D01*
X3839229Y-543508D02*
X3858277Y-533984D01*
X3858277Y-533984D02*
X3905896Y-533984D01*
X3905896Y-533984D02*
X3924944Y-543508D01*
X3924944Y-543508D02*
X3934468Y-553031D01*
X3934468Y-553031D02*
X3943991Y-572079D01*
X3943991Y-572079D02*
X3943991Y-591127D01*
X3943991Y-591127D02*
X3934468Y-619698D01*
X3934468Y-619698D02*
X3820182Y-733984D01*
X3820182Y-733984D02*
X3943991Y-733984D01*
X4182087Y-733984D02*
X4182087Y-533984D01*
X4267801Y-733984D02*
X4267801Y-629222D01*
X4267801Y-629222D02*
X4258277Y-610174D01*
X4258277Y-610174D02*
X4239230Y-600650D01*
X4239230Y-600650D02*
X4210658Y-600650D01*
X4210658Y-600650D02*
X4191610Y-610174D01*
X4191610Y-610174D02*
X4182087Y-619698D01*
X4391611Y-733984D02*
X4372563Y-724460D01*
X4372563Y-724460D02*
X4363039Y-714936D01*
X4363039Y-714936D02*
X4353515Y-695889D01*
X4353515Y-695889D02*
X4353515Y-638746D01*
X4353515Y-638746D02*
X4363039Y-619698D01*
X4363039Y-619698D02*
X4372563Y-610174D01*
X4372563Y-610174D02*
X4391611Y-600650D01*
X4391611Y-600650D02*
X4420182Y-600650D01*
X4420182Y-600650D02*
X4439230Y-610174D01*
X4439230Y-610174D02*
X4448753Y-619698D01*
X4448753Y-619698D02*
X4458277Y-638746D01*
X4458277Y-638746D02*
X4458277Y-695889D01*
X4458277Y-695889D02*
X4448753Y-714936D01*
X4448753Y-714936D02*
X4439230Y-724460D01*
X4439230Y-724460D02*
X4420182Y-733984D01*
X4420182Y-733984D02*
X4391611Y-733984D01*
X4572563Y-733984D02*
X4553515Y-724460D01*
X4553515Y-724460D02*
X4543992Y-705412D01*
X4543992Y-705412D02*
X4543992Y-533984D01*
X4724944Y-724460D02*
X4705896Y-733984D01*
X4705896Y-733984D02*
X4667801Y-733984D01*
X4667801Y-733984D02*
X4648753Y-724460D01*
X4648753Y-724460D02*
X4639230Y-705412D01*
X4639230Y-705412D02*
X4639230Y-629222D01*
X4639230Y-629222D02*
X4648753Y-610174D01*
X4648753Y-610174D02*
X4667801Y-600650D01*
X4667801Y-600650D02*
X4705896Y-600650D01*
X4705896Y-600650D02*
X4724944Y-610174D01*
X4724944Y-610174D02*
X4734468Y-629222D01*
X4734468Y-629222D02*
X4734468Y-648270D01*
X4734468Y-648270D02*
X4639230Y-667317D01*
X4810658Y-724460D02*
X4829706Y-733984D01*
X4829706Y-733984D02*
X4867801Y-733984D01*
X4867801Y-733984D02*
X4886849Y-724460D01*
X4886849Y-724460D02*
X4896373Y-705412D01*
X4896373Y-705412D02*
X4896373Y-695889D01*
X4896373Y-695889D02*
X4886849Y-676841D01*
X4886849Y-676841D02*
X4867801Y-667317D01*
X4867801Y-667317D02*
X4839230Y-667317D01*
X4839230Y-667317D02*
X4820182Y-657793D01*
X4820182Y-657793D02*
X4810658Y-638746D01*
X4810658Y-638746D02*
X4810658Y-629222D01*
X4810658Y-629222D02*
X4820182Y-610174D01*
X4820182Y-610174D02*
X4839230Y-600650D01*
X4839230Y-600650D02*
X4867801Y-600650D01*
X4867801Y-600650D02*
X4886849Y-610174D01*
X4963039Y-810174D02*
X4972563Y-800650D01*
X4972563Y-800650D02*
X4991611Y-772079D01*
X4991611Y-772079D02*
X5001134Y-753031D01*
X5001134Y-753031D02*
X5010658Y-724460D01*
X5010658Y-724460D02*
X5020182Y-676841D01*
X5020182Y-676841D02*
X5020182Y-638746D01*
X5020182Y-638746D02*
X5010658Y-591127D01*
X5010658Y-591127D02*
X5001134Y-562555D01*
X5001134Y-562555D02*
X4991611Y-543508D01*
X4991611Y-543508D02*
X4972563Y-514936D01*
X4972563Y-514936D02*
X4963039Y-505412D01*
D12*
X-2500Y-906500D02*
G75*
G02*
X-82500Y-906500I-40000J0D01*
G01*
X-82500Y-906500D02*
G75*
G02*
X-2500Y-906500I40000J0D01*
G01*
D11*
X296372Y-797984D02*
X315420Y-797984D01*
X315420Y-797984D02*
X334467Y-807508D01*
X334467Y-807508D02*
X343991Y-817031D01*
X343991Y-817031D02*
X353515Y-836079D01*
X353515Y-836079D02*
X363039Y-874174D01*
X363039Y-874174D02*
X363039Y-921793D01*
X363039Y-921793D02*
X353515Y-959888D01*
X353515Y-959888D02*
X343991Y-978936D01*
X343991Y-978936D02*
X334467Y-988460D01*
X334467Y-988460D02*
X315420Y-997984D01*
X315420Y-997984D02*
X296372Y-997984D01*
X296372Y-997984D02*
X277324Y-988460D01*
X277324Y-988460D02*
X267801Y-978936D01*
X267801Y-978936D02*
X258277Y-959888D01*
X258277Y-959888D02*
X248753Y-921793D01*
X248753Y-921793D02*
X248753Y-874174D01*
X248753Y-874174D02*
X258277Y-836079D01*
X258277Y-836079D02*
X267801Y-817031D01*
X267801Y-817031D02*
X277324Y-807508D01*
X277324Y-807508D02*
X296372Y-797984D01*
X448753Y-978936D02*
X458277Y-988460D01*
X458277Y-988460D02*
X448753Y-997984D01*
X448753Y-997984D02*
X439229Y-988460D01*
X439229Y-988460D02*
X448753Y-978936D01*
X448753Y-978936D02*
X448753Y-997984D01*
X572563Y-883698D02*
X553515Y-874174D01*
X553515Y-874174D02*
X543991Y-864650D01*
X543991Y-864650D02*
X534467Y-845603D01*
X534467Y-845603D02*
X534467Y-836079D01*
X534467Y-836079D02*
X543991Y-817031D01*
X543991Y-817031D02*
X553515Y-807508D01*
X553515Y-807508D02*
X572563Y-797984D01*
X572563Y-797984D02*
X610658Y-797984D01*
X610658Y-797984D02*
X629705Y-807508D01*
X629705Y-807508D02*
X639229Y-817031D01*
X639229Y-817031D02*
X648753Y-836079D01*
X648753Y-836079D02*
X648753Y-845603D01*
X648753Y-845603D02*
X639229Y-864650D01*
X639229Y-864650D02*
X629705Y-874174D01*
X629705Y-874174D02*
X610658Y-883698D01*
X610658Y-883698D02*
X572563Y-883698D01*
X572563Y-883698D02*
X553515Y-893222D01*
X553515Y-893222D02*
X543991Y-902746D01*
X543991Y-902746D02*
X534467Y-921793D01*
X534467Y-921793D02*
X534467Y-959888D01*
X534467Y-959888D02*
X543991Y-978936D01*
X543991Y-978936D02*
X553515Y-988460D01*
X553515Y-988460D02*
X572563Y-997984D01*
X572563Y-997984D02*
X610658Y-997984D01*
X610658Y-997984D02*
X629705Y-988460D01*
X629705Y-988460D02*
X639229Y-978936D01*
X639229Y-978936D02*
X648753Y-959888D01*
X648753Y-959888D02*
X648753Y-921793D01*
X648753Y-921793D02*
X639229Y-902746D01*
X639229Y-902746D02*
X629705Y-893222D01*
X629705Y-893222D02*
X610658Y-883698D01*
X772562Y-797984D02*
X791610Y-797984D01*
X791610Y-797984D02*
X810658Y-807508D01*
X810658Y-807508D02*
X820182Y-817031D01*
X820182Y-817031D02*
X829705Y-836079D01*
X829705Y-836079D02*
X839229Y-874174D01*
X839229Y-874174D02*
X839229Y-921793D01*
X839229Y-921793D02*
X829705Y-959888D01*
X829705Y-959888D02*
X820182Y-978936D01*
X820182Y-978936D02*
X810658Y-988460D01*
X810658Y-988460D02*
X791610Y-997984D01*
X791610Y-997984D02*
X772562Y-997984D01*
X772562Y-997984D02*
X753515Y-988460D01*
X753515Y-988460D02*
X743991Y-978936D01*
X743991Y-978936D02*
X734467Y-959888D01*
X734467Y-959888D02*
X724943Y-921793D01*
X724943Y-921793D02*
X724943Y-874174D01*
X724943Y-874174D02*
X734467Y-836079D01*
X734467Y-836079D02*
X743991Y-817031D01*
X743991Y-817031D02*
X753515Y-807508D01*
X753515Y-807508D02*
X772562Y-797984D01*
X963039Y-797984D02*
X982086Y-797984D01*
X982086Y-797984D02*
X1001134Y-807508D01*
X1001134Y-807508D02*
X1010658Y-817031D01*
X1010658Y-817031D02*
X1020182Y-836079D01*
X1020182Y-836079D02*
X1029705Y-874174D01*
X1029705Y-874174D02*
X1029705Y-921793D01*
X1029705Y-921793D02*
X1020182Y-959888D01*
X1020182Y-959888D02*
X1010658Y-978936D01*
X1010658Y-978936D02*
X1001134Y-988460D01*
X1001134Y-988460D02*
X982086Y-997984D01*
X982086Y-997984D02*
X963039Y-997984D01*
X963039Y-997984D02*
X943991Y-988460D01*
X943991Y-988460D02*
X934467Y-978936D01*
X934467Y-978936D02*
X924943Y-959888D01*
X924943Y-959888D02*
X915420Y-921793D01*
X915420Y-921793D02*
X915420Y-874174D01*
X915420Y-874174D02*
X924943Y-836079D01*
X924943Y-836079D02*
X934467Y-817031D01*
X934467Y-817031D02*
X943991Y-807508D01*
X943991Y-807508D02*
X963039Y-797984D01*
X1115420Y-997984D02*
X1115420Y-864650D01*
X1115420Y-883698D02*
X1124944Y-874174D01*
X1124944Y-874174D02*
X1143991Y-864650D01*
X1143991Y-864650D02*
X1172563Y-864650D01*
X1172563Y-864650D02*
X1191610Y-874174D01*
X1191610Y-874174D02*
X1201134Y-893222D01*
X1201134Y-893222D02*
X1201134Y-997984D01*
X1201134Y-893222D02*
X1210658Y-874174D01*
X1210658Y-874174D02*
X1229705Y-864650D01*
X1229705Y-864650D02*
X1258277Y-864650D01*
X1258277Y-864650D02*
X1277325Y-874174D01*
X1277325Y-874174D02*
X1286848Y-893222D01*
X1286848Y-893222D02*
X1286848Y-997984D01*
X1382086Y-997984D02*
X1382086Y-864650D01*
X1382086Y-883698D02*
X1391610Y-874174D01*
X1391610Y-874174D02*
X1410658Y-864650D01*
X1410658Y-864650D02*
X1439229Y-864650D01*
X1439229Y-864650D02*
X1458277Y-874174D01*
X1458277Y-874174D02*
X1467801Y-893222D01*
X1467801Y-893222D02*
X1467801Y-997984D01*
X1467801Y-893222D02*
X1477324Y-874174D01*
X1477324Y-874174D02*
X1496372Y-864650D01*
X1496372Y-864650D02*
X1524943Y-864650D01*
X1524943Y-864650D02*
X1543991Y-874174D01*
X1543991Y-874174D02*
X1553515Y-893222D01*
X1553515Y-893222D02*
X1553515Y-997984D01*
X1943991Y-788460D02*
X1772563Y-1045603D01*
X2201134Y-797984D02*
X2220182Y-797984D01*
X2220182Y-797984D02*
X2239229Y-807508D01*
X2239229Y-807508D02*
X2248753Y-817031D01*
X2248753Y-817031D02*
X2258277Y-836079D01*
X2258277Y-836079D02*
X2267801Y-874174D01*
X2267801Y-874174D02*
X2267801Y-921793D01*
X2267801Y-921793D02*
X2258277Y-959888D01*
X2258277Y-959888D02*
X2248753Y-978936D01*
X2248753Y-978936D02*
X2239229Y-988460D01*
X2239229Y-988460D02*
X2220182Y-997984D01*
X2220182Y-997984D02*
X2201134Y-997984D01*
X2201134Y-997984D02*
X2182087Y-988460D01*
X2182087Y-988460D02*
X2172563Y-978936D01*
X2172563Y-978936D02*
X2163039Y-959888D01*
X2163039Y-959888D02*
X2153515Y-921793D01*
X2153515Y-921793D02*
X2153515Y-874174D01*
X2153515Y-874174D02*
X2163039Y-836079D01*
X2163039Y-836079D02*
X2172563Y-817031D01*
X2172563Y-817031D02*
X2182087Y-807508D01*
X2182087Y-807508D02*
X2201134Y-797984D01*
X2353515Y-978936D02*
X2363039Y-988460D01*
X2363039Y-988460D02*
X2353515Y-997984D01*
X2353515Y-997984D02*
X2343991Y-988460D01*
X2343991Y-988460D02*
X2353515Y-978936D01*
X2353515Y-978936D02*
X2353515Y-997984D01*
X2486848Y-797984D02*
X2505896Y-797984D01*
X2505896Y-797984D02*
X2524944Y-807508D01*
X2524944Y-807508D02*
X2534468Y-817031D01*
X2534468Y-817031D02*
X2543991Y-836079D01*
X2543991Y-836079D02*
X2553515Y-874174D01*
X2553515Y-874174D02*
X2553515Y-921793D01*
X2553515Y-921793D02*
X2543991Y-959888D01*
X2543991Y-959888D02*
X2534468Y-978936D01*
X2534468Y-978936D02*
X2524944Y-988460D01*
X2524944Y-988460D02*
X2505896Y-997984D01*
X2505896Y-997984D02*
X2486848Y-997984D01*
X2486848Y-997984D02*
X2467801Y-988460D01*
X2467801Y-988460D02*
X2458277Y-978936D01*
X2458277Y-978936D02*
X2448753Y-959888D01*
X2448753Y-959888D02*
X2439229Y-921793D01*
X2439229Y-921793D02*
X2439229Y-874174D01*
X2439229Y-874174D02*
X2448753Y-836079D01*
X2448753Y-836079D02*
X2458277Y-817031D01*
X2458277Y-817031D02*
X2467801Y-807508D01*
X2467801Y-807508D02*
X2486848Y-797984D01*
X2620182Y-797984D02*
X2743991Y-797984D01*
X2743991Y-797984D02*
X2677325Y-874174D01*
X2677325Y-874174D02*
X2705896Y-874174D01*
X2705896Y-874174D02*
X2724944Y-883698D01*
X2724944Y-883698D02*
X2734468Y-893222D01*
X2734468Y-893222D02*
X2743991Y-912269D01*
X2743991Y-912269D02*
X2743991Y-959888D01*
X2743991Y-959888D02*
X2734468Y-978936D01*
X2734468Y-978936D02*
X2724944Y-988460D01*
X2724944Y-988460D02*
X2705896Y-997984D01*
X2705896Y-997984D02*
X2648753Y-997984D01*
X2648753Y-997984D02*
X2629706Y-988460D01*
X2629706Y-988460D02*
X2620182Y-978936D01*
X2934467Y-997984D02*
X2820182Y-997984D01*
X2877325Y-997984D02*
X2877325Y-797984D01*
X2877325Y-797984D02*
X2858277Y-826555D01*
X2858277Y-826555D02*
X2839229Y-845603D01*
X2839229Y-845603D02*
X2820182Y-855127D01*
X3115420Y-797984D02*
X3020182Y-797984D01*
X3020182Y-797984D02*
X3010658Y-893222D01*
X3010658Y-893222D02*
X3020182Y-883698D01*
X3020182Y-883698D02*
X3039229Y-874174D01*
X3039229Y-874174D02*
X3086848Y-874174D01*
X3086848Y-874174D02*
X3105896Y-883698D01*
X3105896Y-883698D02*
X3115420Y-893222D01*
X3115420Y-893222D02*
X3124944Y-912269D01*
X3124944Y-912269D02*
X3124944Y-959888D01*
X3124944Y-959888D02*
X3115420Y-978936D01*
X3115420Y-978936D02*
X3105896Y-988460D01*
X3105896Y-988460D02*
X3086848Y-997984D01*
X3086848Y-997984D02*
X3039229Y-997984D01*
X3039229Y-997984D02*
X3020182Y-988460D01*
X3020182Y-988460D02*
X3010658Y-978936D01*
X3201134Y-797984D02*
X3201134Y-836079D01*
X3277325Y-797984D02*
X3277325Y-836079D01*
X3572563Y-1074174D02*
X3563039Y-1064650D01*
X3563039Y-1064650D02*
X3543991Y-1036079D01*
X3543991Y-1036079D02*
X3534468Y-1017031D01*
X3534468Y-1017031D02*
X3524944Y-988460D01*
X3524944Y-988460D02*
X3515420Y-940841D01*
X3515420Y-940841D02*
X3515420Y-902746D01*
X3515420Y-902746D02*
X3524944Y-855127D01*
X3524944Y-855127D02*
X3534468Y-826555D01*
X3534468Y-826555D02*
X3543991Y-807508D01*
X3543991Y-807508D02*
X3563039Y-778936D01*
X3563039Y-778936D02*
X3572563Y-769412D01*
X3639229Y-817031D02*
X3648753Y-807508D01*
X3648753Y-807508D02*
X3667801Y-797984D01*
X3667801Y-797984D02*
X3715420Y-797984D01*
X3715420Y-797984D02*
X3734468Y-807508D01*
X3734468Y-807508D02*
X3743991Y-817031D01*
X3743991Y-817031D02*
X3753515Y-836079D01*
X3753515Y-836079D02*
X3753515Y-855127D01*
X3753515Y-855127D02*
X3743991Y-883698D01*
X3743991Y-883698D02*
X3629706Y-997984D01*
X3629706Y-997984D02*
X3753515Y-997984D01*
X3877325Y-797984D02*
X3896372Y-797984D01*
X3896372Y-797984D02*
X3915420Y-807508D01*
X3915420Y-807508D02*
X3924944Y-817031D01*
X3924944Y-817031D02*
X3934468Y-836079D01*
X3934468Y-836079D02*
X3943991Y-874174D01*
X3943991Y-874174D02*
X3943991Y-921793D01*
X3943991Y-921793D02*
X3934468Y-959888D01*
X3934468Y-959888D02*
X3924944Y-978936D01*
X3924944Y-978936D02*
X3915420Y-988460D01*
X3915420Y-988460D02*
X3896372Y-997984D01*
X3896372Y-997984D02*
X3877325Y-997984D01*
X3877325Y-997984D02*
X3858277Y-988460D01*
X3858277Y-988460D02*
X3848753Y-978936D01*
X3848753Y-978936D02*
X3839229Y-959888D01*
X3839229Y-959888D02*
X3829706Y-921793D01*
X3829706Y-921793D02*
X3829706Y-874174D01*
X3829706Y-874174D02*
X3839229Y-836079D01*
X3839229Y-836079D02*
X3848753Y-817031D01*
X3848753Y-817031D02*
X3858277Y-807508D01*
X3858277Y-807508D02*
X3877325Y-797984D01*
X4067801Y-797984D02*
X4086849Y-797984D01*
X4086849Y-797984D02*
X4105896Y-807508D01*
X4105896Y-807508D02*
X4115420Y-817031D01*
X4115420Y-817031D02*
X4124944Y-836079D01*
X4124944Y-836079D02*
X4134468Y-874174D01*
X4134468Y-874174D02*
X4134468Y-921793D01*
X4134468Y-921793D02*
X4124944Y-959888D01*
X4124944Y-959888D02*
X4115420Y-978936D01*
X4115420Y-978936D02*
X4105896Y-988460D01*
X4105896Y-988460D02*
X4086849Y-997984D01*
X4086849Y-997984D02*
X4067801Y-997984D01*
X4067801Y-997984D02*
X4048753Y-988460D01*
X4048753Y-988460D02*
X4039229Y-978936D01*
X4039229Y-978936D02*
X4029706Y-959888D01*
X4029706Y-959888D02*
X4020182Y-921793D01*
X4020182Y-921793D02*
X4020182Y-874174D01*
X4020182Y-874174D02*
X4029706Y-836079D01*
X4029706Y-836079D02*
X4039229Y-817031D01*
X4039229Y-817031D02*
X4048753Y-807508D01*
X4048753Y-807508D02*
X4067801Y-797984D01*
X4372563Y-997984D02*
X4372563Y-797984D01*
X4458277Y-997984D02*
X4458277Y-893222D01*
X4458277Y-893222D02*
X4448753Y-874174D01*
X4448753Y-874174D02*
X4429706Y-864650D01*
X4429706Y-864650D02*
X4401134Y-864650D01*
X4401134Y-864650D02*
X4382087Y-874174D01*
X4382087Y-874174D02*
X4372563Y-883698D01*
X4582087Y-997984D02*
X4563039Y-988460D01*
X4563039Y-988460D02*
X4553515Y-978936D01*
X4553515Y-978936D02*
X4543992Y-959888D01*
X4543992Y-959888D02*
X4543992Y-902746D01*
X4543992Y-902746D02*
X4553515Y-883698D01*
X4553515Y-883698D02*
X4563039Y-874174D01*
X4563039Y-874174D02*
X4582087Y-864650D01*
X4582087Y-864650D02*
X4610658Y-864650D01*
X4610658Y-864650D02*
X4629706Y-874174D01*
X4629706Y-874174D02*
X4639230Y-883698D01*
X4639230Y-883698D02*
X4648753Y-902746D01*
X4648753Y-902746D02*
X4648753Y-959888D01*
X4648753Y-959888D02*
X4639230Y-978936D01*
X4639230Y-978936D02*
X4629706Y-988460D01*
X4629706Y-988460D02*
X4610658Y-997984D01*
X4610658Y-997984D02*
X4582087Y-997984D01*
X4763039Y-997984D02*
X4743992Y-988460D01*
X4743992Y-988460D02*
X4734468Y-969412D01*
X4734468Y-969412D02*
X4734468Y-797984D01*
X4915420Y-988460D02*
X4896373Y-997984D01*
X4896373Y-997984D02*
X4858277Y-997984D01*
X4858277Y-997984D02*
X4839230Y-988460D01*
X4839230Y-988460D02*
X4829706Y-969412D01*
X4829706Y-969412D02*
X4829706Y-893222D01*
X4829706Y-893222D02*
X4839230Y-874174D01*
X4839230Y-874174D02*
X4858277Y-864650D01*
X4858277Y-864650D02*
X4896373Y-864650D01*
X4896373Y-864650D02*
X4915420Y-874174D01*
X4915420Y-874174D02*
X4924944Y-893222D01*
X4924944Y-893222D02*
X4924944Y-912269D01*
X4924944Y-912269D02*
X4829706Y-931317D01*
X5001134Y-988460D02*
X5020182Y-997984D01*
X5020182Y-997984D02*
X5058277Y-997984D01*
X5058277Y-997984D02*
X5077325Y-988460D01*
X5077325Y-988460D02*
X5086849Y-969412D01*
X5086849Y-969412D02*
X5086849Y-959888D01*
X5086849Y-959888D02*
X5077325Y-940841D01*
X5077325Y-940841D02*
X5058277Y-931317D01*
X5058277Y-931317D02*
X5029706Y-931317D01*
X5029706Y-931317D02*
X5010658Y-921793D01*
X5010658Y-921793D02*
X5001134Y-902746D01*
X5001134Y-902746D02*
X5001134Y-893222D01*
X5001134Y-893222D02*
X5010658Y-874174D01*
X5010658Y-874174D02*
X5029706Y-864650D01*
X5029706Y-864650D02*
X5058277Y-864650D01*
X5058277Y-864650D02*
X5077325Y-874174D01*
X5153515Y-1074174D02*
X5163039Y-1064650D01*
X5163039Y-1064650D02*
X5182087Y-1036079D01*
X5182087Y-1036079D02*
X5191611Y-1017031D01*
X5191611Y-1017031D02*
X5201134Y-988460D01*
X5201134Y-988460D02*
X5210658Y-940841D01*
X5210658Y-940841D02*
X5210658Y-902746D01*
X5210658Y-902746D02*
X5201134Y-855127D01*
X5201134Y-855127D02*
X5191611Y-826555D01*
X5191611Y-826555D02*
X5182087Y-807508D01*
X5182087Y-807508D02*
X5163039Y-778936D01*
X5163039Y-778936D02*
X5153515Y-769412D01*
D12*
X-48220Y-1124780D02*
X-48220Y-1216220D01*
X-93940Y-1170500D02*
X-2500Y-1170500D01*
D11*
X296372Y-1061984D02*
X315420Y-1061984D01*
X315420Y-1061984D02*
X334467Y-1071508D01*
X334467Y-1071508D02*
X343991Y-1081031D01*
X343991Y-1081031D02*
X353515Y-1100079D01*
X353515Y-1100079D02*
X363039Y-1138174D01*
X363039Y-1138174D02*
X363039Y-1185793D01*
X363039Y-1185793D02*
X353515Y-1223889D01*
X353515Y-1223889D02*
X343991Y-1242936D01*
X343991Y-1242936D02*
X334467Y-1252460D01*
X334467Y-1252460D02*
X315420Y-1261984D01*
X315420Y-1261984D02*
X296372Y-1261984D01*
X296372Y-1261984D02*
X277324Y-1252460D01*
X277324Y-1252460D02*
X267801Y-1242936D01*
X267801Y-1242936D02*
X258277Y-1223889D01*
X258277Y-1223889D02*
X248753Y-1185793D01*
X248753Y-1185793D02*
X248753Y-1138174D01*
X248753Y-1138174D02*
X258277Y-1100079D01*
X258277Y-1100079D02*
X267801Y-1081031D01*
X267801Y-1081031D02*
X277324Y-1071508D01*
X277324Y-1071508D02*
X296372Y-1061984D01*
X448753Y-1242936D02*
X458277Y-1252460D01*
X458277Y-1252460D02*
X448753Y-1261984D01*
X448753Y-1261984D02*
X439229Y-1252460D01*
X439229Y-1252460D02*
X448753Y-1242936D01*
X448753Y-1242936D02*
X448753Y-1261984D01*
X553515Y-1261984D02*
X591610Y-1261984D01*
X591610Y-1261984D02*
X610658Y-1252460D01*
X610658Y-1252460D02*
X620182Y-1242936D01*
X620182Y-1242936D02*
X639229Y-1214365D01*
X639229Y-1214365D02*
X648753Y-1176270D01*
X648753Y-1176270D02*
X648753Y-1100079D01*
X648753Y-1100079D02*
X639229Y-1081031D01*
X639229Y-1081031D02*
X629705Y-1071508D01*
X629705Y-1071508D02*
X610658Y-1061984D01*
X610658Y-1061984D02*
X572563Y-1061984D01*
X572563Y-1061984D02*
X553515Y-1071508D01*
X553515Y-1071508D02*
X543991Y-1081031D01*
X543991Y-1081031D02*
X534467Y-1100079D01*
X534467Y-1100079D02*
X534467Y-1147698D01*
X534467Y-1147698D02*
X543991Y-1166746D01*
X543991Y-1166746D02*
X553515Y-1176270D01*
X553515Y-1176270D02*
X572563Y-1185793D01*
X572563Y-1185793D02*
X610658Y-1185793D01*
X610658Y-1185793D02*
X629705Y-1176270D01*
X629705Y-1176270D02*
X639229Y-1166746D01*
X639229Y-1166746D02*
X648753Y-1147698D01*
X839229Y-1261984D02*
X724943Y-1261984D01*
X782086Y-1261984D02*
X782086Y-1061984D01*
X782086Y-1061984D02*
X763039Y-1090555D01*
X763039Y-1090555D02*
X743991Y-1109603D01*
X743991Y-1109603D02*
X724943Y-1119127D01*
X1010658Y-1128650D02*
X1010658Y-1261984D01*
X963039Y-1052460D02*
X915420Y-1195317D01*
X915420Y-1195317D02*
X1039229Y-1195317D01*
X1115420Y-1261984D02*
X1115420Y-1128650D01*
X1115420Y-1147698D02*
X1124944Y-1138174D01*
X1124944Y-1138174D02*
X1143991Y-1128650D01*
X1143991Y-1128650D02*
X1172563Y-1128650D01*
X1172563Y-1128650D02*
X1191610Y-1138174D01*
X1191610Y-1138174D02*
X1201134Y-1157222D01*
X1201134Y-1157222D02*
X1201134Y-1261984D01*
X1201134Y-1157222D02*
X1210658Y-1138174D01*
X1210658Y-1138174D02*
X1229705Y-1128650D01*
X1229705Y-1128650D02*
X1258277Y-1128650D01*
X1258277Y-1128650D02*
X1277325Y-1138174D01*
X1277325Y-1138174D02*
X1286848Y-1157222D01*
X1286848Y-1157222D02*
X1286848Y-1261984D01*
X1382086Y-1261984D02*
X1382086Y-1128650D01*
X1382086Y-1147698D02*
X1391610Y-1138174D01*
X1391610Y-1138174D02*
X1410658Y-1128650D01*
X1410658Y-1128650D02*
X1439229Y-1128650D01*
X1439229Y-1128650D02*
X1458277Y-1138174D01*
X1458277Y-1138174D02*
X1467801Y-1157222D01*
X1467801Y-1157222D02*
X1467801Y-1261984D01*
X1467801Y-1157222D02*
X1477324Y-1138174D01*
X1477324Y-1138174D02*
X1496372Y-1128650D01*
X1496372Y-1128650D02*
X1524943Y-1128650D01*
X1524943Y-1128650D02*
X1543991Y-1138174D01*
X1543991Y-1138174D02*
X1553515Y-1157222D01*
X1553515Y-1157222D02*
X1553515Y-1261984D01*
X1943991Y-1052460D02*
X1772563Y-1309603D01*
X2201134Y-1061984D02*
X2220182Y-1061984D01*
X2220182Y-1061984D02*
X2239229Y-1071508D01*
X2239229Y-1071508D02*
X2248753Y-1081031D01*
X2248753Y-1081031D02*
X2258277Y-1100079D01*
X2258277Y-1100079D02*
X2267801Y-1138174D01*
X2267801Y-1138174D02*
X2267801Y-1185793D01*
X2267801Y-1185793D02*
X2258277Y-1223889D01*
X2258277Y-1223889D02*
X2248753Y-1242936D01*
X2248753Y-1242936D02*
X2239229Y-1252460D01*
X2239229Y-1252460D02*
X2220182Y-1261984D01*
X2220182Y-1261984D02*
X2201134Y-1261984D01*
X2201134Y-1261984D02*
X2182087Y-1252460D01*
X2182087Y-1252460D02*
X2172563Y-1242936D01*
X2172563Y-1242936D02*
X2163039Y-1223889D01*
X2163039Y-1223889D02*
X2153515Y-1185793D01*
X2153515Y-1185793D02*
X2153515Y-1138174D01*
X2153515Y-1138174D02*
X2163039Y-1100079D01*
X2163039Y-1100079D02*
X2172563Y-1081031D01*
X2172563Y-1081031D02*
X2182087Y-1071508D01*
X2182087Y-1071508D02*
X2201134Y-1061984D01*
X2353515Y-1242936D02*
X2363039Y-1252460D01*
X2363039Y-1252460D02*
X2353515Y-1261984D01*
X2353515Y-1261984D02*
X2343991Y-1252460D01*
X2343991Y-1252460D02*
X2353515Y-1242936D01*
X2353515Y-1242936D02*
X2353515Y-1261984D01*
X2486848Y-1061984D02*
X2505896Y-1061984D01*
X2505896Y-1061984D02*
X2524944Y-1071508D01*
X2524944Y-1071508D02*
X2534468Y-1081031D01*
X2534468Y-1081031D02*
X2543991Y-1100079D01*
X2543991Y-1100079D02*
X2553515Y-1138174D01*
X2553515Y-1138174D02*
X2553515Y-1185793D01*
X2553515Y-1185793D02*
X2543991Y-1223889D01*
X2543991Y-1223889D02*
X2534468Y-1242936D01*
X2534468Y-1242936D02*
X2524944Y-1252460D01*
X2524944Y-1252460D02*
X2505896Y-1261984D01*
X2505896Y-1261984D02*
X2486848Y-1261984D01*
X2486848Y-1261984D02*
X2467801Y-1252460D01*
X2467801Y-1252460D02*
X2458277Y-1242936D01*
X2458277Y-1242936D02*
X2448753Y-1223889D01*
X2448753Y-1223889D02*
X2439229Y-1185793D01*
X2439229Y-1185793D02*
X2439229Y-1138174D01*
X2439229Y-1138174D02*
X2448753Y-1100079D01*
X2448753Y-1100079D02*
X2458277Y-1081031D01*
X2458277Y-1081031D02*
X2467801Y-1071508D01*
X2467801Y-1071508D02*
X2486848Y-1061984D01*
X2620182Y-1061984D02*
X2743991Y-1061984D01*
X2743991Y-1061984D02*
X2677325Y-1138174D01*
X2677325Y-1138174D02*
X2705896Y-1138174D01*
X2705896Y-1138174D02*
X2724944Y-1147698D01*
X2724944Y-1147698D02*
X2734468Y-1157222D01*
X2734468Y-1157222D02*
X2743991Y-1176270D01*
X2743991Y-1176270D02*
X2743991Y-1223889D01*
X2743991Y-1223889D02*
X2734468Y-1242936D01*
X2734468Y-1242936D02*
X2724944Y-1252460D01*
X2724944Y-1252460D02*
X2705896Y-1261984D01*
X2705896Y-1261984D02*
X2648753Y-1261984D01*
X2648753Y-1261984D02*
X2629706Y-1252460D01*
X2629706Y-1252460D02*
X2620182Y-1242936D01*
X2915420Y-1061984D02*
X2877325Y-1061984D01*
X2877325Y-1061984D02*
X2858277Y-1071508D01*
X2858277Y-1071508D02*
X2848753Y-1081031D01*
X2848753Y-1081031D02*
X2829706Y-1109603D01*
X2829706Y-1109603D02*
X2820182Y-1147698D01*
X2820182Y-1147698D02*
X2820182Y-1223889D01*
X2820182Y-1223889D02*
X2829706Y-1242936D01*
X2829706Y-1242936D02*
X2839229Y-1252460D01*
X2839229Y-1252460D02*
X2858277Y-1261984D01*
X2858277Y-1261984D02*
X2896372Y-1261984D01*
X2896372Y-1261984D02*
X2915420Y-1252460D01*
X2915420Y-1252460D02*
X2924944Y-1242936D01*
X2924944Y-1242936D02*
X2934467Y-1223889D01*
X2934467Y-1223889D02*
X2934467Y-1176270D01*
X2934467Y-1176270D02*
X2924944Y-1157222D01*
X2924944Y-1157222D02*
X2915420Y-1147698D01*
X2915420Y-1147698D02*
X2896372Y-1138174D01*
X2896372Y-1138174D02*
X2858277Y-1138174D01*
X2858277Y-1138174D02*
X2839229Y-1147698D01*
X2839229Y-1147698D02*
X2829706Y-1157222D01*
X2829706Y-1157222D02*
X2820182Y-1176270D01*
X3058277Y-1061984D02*
X3077325Y-1061984D01*
X3077325Y-1061984D02*
X3096372Y-1071508D01*
X3096372Y-1071508D02*
X3105896Y-1081031D01*
X3105896Y-1081031D02*
X3115420Y-1100079D01*
X3115420Y-1100079D02*
X3124944Y-1138174D01*
X3124944Y-1138174D02*
X3124944Y-1185793D01*
X3124944Y-1185793D02*
X3115420Y-1223889D01*
X3115420Y-1223889D02*
X3105896Y-1242936D01*
X3105896Y-1242936D02*
X3096372Y-1252460D01*
X3096372Y-1252460D02*
X3077325Y-1261984D01*
X3077325Y-1261984D02*
X3058277Y-1261984D01*
X3058277Y-1261984D02*
X3039229Y-1252460D01*
X3039229Y-1252460D02*
X3029706Y-1242936D01*
X3029706Y-1242936D02*
X3020182Y-1223889D01*
X3020182Y-1223889D02*
X3010658Y-1185793D01*
X3010658Y-1185793D02*
X3010658Y-1138174D01*
X3010658Y-1138174D02*
X3020182Y-1100079D01*
X3020182Y-1100079D02*
X3029706Y-1081031D01*
X3029706Y-1081031D02*
X3039229Y-1071508D01*
X3039229Y-1071508D02*
X3058277Y-1061984D01*
X3201134Y-1061984D02*
X3201134Y-1100079D01*
X3277325Y-1061984D02*
X3277325Y-1100079D01*
X3572563Y-1338174D02*
X3563039Y-1328650D01*
X3563039Y-1328650D02*
X3543991Y-1300079D01*
X3543991Y-1300079D02*
X3534468Y-1281031D01*
X3534468Y-1281031D02*
X3524944Y-1252460D01*
X3524944Y-1252460D02*
X3515420Y-1204841D01*
X3515420Y-1204841D02*
X3515420Y-1166746D01*
X3515420Y-1166746D02*
X3524944Y-1119127D01*
X3524944Y-1119127D02*
X3534468Y-1090555D01*
X3534468Y-1090555D02*
X3543991Y-1071508D01*
X3543991Y-1071508D02*
X3563039Y-1042936D01*
X3563039Y-1042936D02*
X3572563Y-1033412D01*
X3734468Y-1128650D02*
X3734468Y-1261984D01*
X3686848Y-1052460D02*
X3639229Y-1195317D01*
X3639229Y-1195317D02*
X3763039Y-1195317D01*
X3877325Y-1061984D02*
X3896372Y-1061984D01*
X3896372Y-1061984D02*
X3915420Y-1071508D01*
X3915420Y-1071508D02*
X3924944Y-1081031D01*
X3924944Y-1081031D02*
X3934468Y-1100079D01*
X3934468Y-1100079D02*
X3943991Y-1138174D01*
X3943991Y-1138174D02*
X3943991Y-1185793D01*
X3943991Y-1185793D02*
X3934468Y-1223889D01*
X3934468Y-1223889D02*
X3924944Y-1242936D01*
X3924944Y-1242936D02*
X3915420Y-1252460D01*
X3915420Y-1252460D02*
X3896372Y-1261984D01*
X3896372Y-1261984D02*
X3877325Y-1261984D01*
X3877325Y-1261984D02*
X3858277Y-1252460D01*
X3858277Y-1252460D02*
X3848753Y-1242936D01*
X3848753Y-1242936D02*
X3839229Y-1223889D01*
X3839229Y-1223889D02*
X3829706Y-1185793D01*
X3829706Y-1185793D02*
X3829706Y-1138174D01*
X3829706Y-1138174D02*
X3839229Y-1100079D01*
X3839229Y-1100079D02*
X3848753Y-1081031D01*
X3848753Y-1081031D02*
X3858277Y-1071508D01*
X3858277Y-1071508D02*
X3877325Y-1061984D01*
X4182087Y-1261984D02*
X4182087Y-1061984D01*
X4267801Y-1261984D02*
X4267801Y-1157222D01*
X4267801Y-1157222D02*
X4258277Y-1138174D01*
X4258277Y-1138174D02*
X4239230Y-1128650D01*
X4239230Y-1128650D02*
X4210658Y-1128650D01*
X4210658Y-1128650D02*
X4191610Y-1138174D01*
X4191610Y-1138174D02*
X4182087Y-1147698D01*
X4391611Y-1261984D02*
X4372563Y-1252460D01*
X4372563Y-1252460D02*
X4363039Y-1242936D01*
X4363039Y-1242936D02*
X4353515Y-1223889D01*
X4353515Y-1223889D02*
X4353515Y-1166746D01*
X4353515Y-1166746D02*
X4363039Y-1147698D01*
X4363039Y-1147698D02*
X4372563Y-1138174D01*
X4372563Y-1138174D02*
X4391611Y-1128650D01*
X4391611Y-1128650D02*
X4420182Y-1128650D01*
X4420182Y-1128650D02*
X4439230Y-1138174D01*
X4439230Y-1138174D02*
X4448753Y-1147698D01*
X4448753Y-1147698D02*
X4458277Y-1166746D01*
X4458277Y-1166746D02*
X4458277Y-1223889D01*
X4458277Y-1223889D02*
X4448753Y-1242936D01*
X4448753Y-1242936D02*
X4439230Y-1252460D01*
X4439230Y-1252460D02*
X4420182Y-1261984D01*
X4420182Y-1261984D02*
X4391611Y-1261984D01*
X4572563Y-1261984D02*
X4553515Y-1252460D01*
X4553515Y-1252460D02*
X4543992Y-1233412D01*
X4543992Y-1233412D02*
X4543992Y-1061984D01*
X4724944Y-1252460D02*
X4705896Y-1261984D01*
X4705896Y-1261984D02*
X4667801Y-1261984D01*
X4667801Y-1261984D02*
X4648753Y-1252460D01*
X4648753Y-1252460D02*
X4639230Y-1233412D01*
X4639230Y-1233412D02*
X4639230Y-1157222D01*
X4639230Y-1157222D02*
X4648753Y-1138174D01*
X4648753Y-1138174D02*
X4667801Y-1128650D01*
X4667801Y-1128650D02*
X4705896Y-1128650D01*
X4705896Y-1128650D02*
X4724944Y-1138174D01*
X4724944Y-1138174D02*
X4734468Y-1157222D01*
X4734468Y-1157222D02*
X4734468Y-1176270D01*
X4734468Y-1176270D02*
X4639230Y-1195317D01*
X4810658Y-1252460D02*
X4829706Y-1261984D01*
X4829706Y-1261984D02*
X4867801Y-1261984D01*
X4867801Y-1261984D02*
X4886849Y-1252460D01*
X4886849Y-1252460D02*
X4896373Y-1233412D01*
X4896373Y-1233412D02*
X4896373Y-1223889D01*
X4896373Y-1223889D02*
X4886849Y-1204841D01*
X4886849Y-1204841D02*
X4867801Y-1195317D01*
X4867801Y-1195317D02*
X4839230Y-1195317D01*
X4839230Y-1195317D02*
X4820182Y-1185793D01*
X4820182Y-1185793D02*
X4810658Y-1166746D01*
X4810658Y-1166746D02*
X4810658Y-1157222D01*
X4810658Y-1157222D02*
X4820182Y-1138174D01*
X4820182Y-1138174D02*
X4839230Y-1128650D01*
X4839230Y-1128650D02*
X4867801Y-1128650D01*
X4867801Y-1128650D02*
X4886849Y-1138174D01*
X4963039Y-1338174D02*
X4972563Y-1328650D01*
X4972563Y-1328650D02*
X4991611Y-1300079D01*
X4991611Y-1300079D02*
X5001134Y-1281031D01*
X5001134Y-1281031D02*
X5010658Y-1252460D01*
X5010658Y-1252460D02*
X5020182Y-1204841D01*
X5020182Y-1204841D02*
X5020182Y-1166746D01*
X5020182Y-1166746D02*
X5010658Y-1119127D01*
X5010658Y-1119127D02*
X5001134Y-1090555D01*
X5001134Y-1090555D02*
X4991611Y-1071508D01*
X4991611Y-1071508D02*
X4972563Y-1042936D01*
X4972563Y-1042936D02*
X4963039Y-1033412D01*
X-31789Y-1505211D02*
X-31789Y-1363789D01*
X-173211Y-1363789D01*
X-173211Y-1505211D01*
X-31789Y-1505211D01*
X248753Y-1345031D02*
X258277Y-1335508D01*
X258277Y-1335508D02*
X277324Y-1325984D01*
X277324Y-1325984D02*
X324944Y-1325984D01*
X324944Y-1325984D02*
X343991Y-1335508D01*
X343991Y-1335508D02*
X353515Y-1345031D01*
X353515Y-1345031D02*
X363039Y-1364079D01*
X363039Y-1364079D02*
X363039Y-1383127D01*
X363039Y-1383127D02*
X353515Y-1411698D01*
X353515Y-1411698D02*
X239229Y-1525984D01*
X239229Y-1525984D02*
X363039Y-1525984D01*
X448753Y-1506936D02*
X458277Y-1516460D01*
X458277Y-1516460D02*
X448753Y-1525984D01*
X448753Y-1525984D02*
X439229Y-1516460D01*
X439229Y-1516460D02*
X448753Y-1506936D01*
X448753Y-1506936D02*
X448753Y-1525984D01*
X534467Y-1345031D02*
X543991Y-1335508D01*
X543991Y-1335508D02*
X563039Y-1325984D01*
X563039Y-1325984D02*
X610658Y-1325984D01*
X610658Y-1325984D02*
X629705Y-1335508D01*
X629705Y-1335508D02*
X639229Y-1345031D01*
X639229Y-1345031D02*
X648753Y-1364079D01*
X648753Y-1364079D02*
X648753Y-1383127D01*
X648753Y-1383127D02*
X639229Y-1411698D01*
X639229Y-1411698D02*
X524944Y-1525984D01*
X524944Y-1525984D02*
X648753Y-1525984D01*
X772562Y-1325984D02*
X791610Y-1325984D01*
X791610Y-1325984D02*
X810658Y-1335508D01*
X810658Y-1335508D02*
X820182Y-1345031D01*
X820182Y-1345031D02*
X829705Y-1364079D01*
X829705Y-1364079D02*
X839229Y-1402174D01*
X839229Y-1402174D02*
X839229Y-1449793D01*
X839229Y-1449793D02*
X829705Y-1487888D01*
X829705Y-1487888D02*
X820182Y-1506936D01*
X820182Y-1506936D02*
X810658Y-1516460D01*
X810658Y-1516460D02*
X791610Y-1525984D01*
X791610Y-1525984D02*
X772562Y-1525984D01*
X772562Y-1525984D02*
X753515Y-1516460D01*
X753515Y-1516460D02*
X743991Y-1506936D01*
X743991Y-1506936D02*
X734467Y-1487888D01*
X734467Y-1487888D02*
X724943Y-1449793D01*
X724943Y-1449793D02*
X724943Y-1402174D01*
X724943Y-1402174D02*
X734467Y-1364079D01*
X734467Y-1364079D02*
X743991Y-1345031D01*
X743991Y-1345031D02*
X753515Y-1335508D01*
X753515Y-1335508D02*
X772562Y-1325984D01*
X963039Y-1325984D02*
X982086Y-1325984D01*
X982086Y-1325984D02*
X1001134Y-1335508D01*
X1001134Y-1335508D02*
X1010658Y-1345031D01*
X1010658Y-1345031D02*
X1020182Y-1364079D01*
X1020182Y-1364079D02*
X1029705Y-1402174D01*
X1029705Y-1402174D02*
X1029705Y-1449793D01*
X1029705Y-1449793D02*
X1020182Y-1487888D01*
X1020182Y-1487888D02*
X1010658Y-1506936D01*
X1010658Y-1506936D02*
X1001134Y-1516460D01*
X1001134Y-1516460D02*
X982086Y-1525984D01*
X982086Y-1525984D02*
X963039Y-1525984D01*
X963039Y-1525984D02*
X943991Y-1516460D01*
X943991Y-1516460D02*
X934467Y-1506936D01*
X934467Y-1506936D02*
X924943Y-1487888D01*
X924943Y-1487888D02*
X915420Y-1449793D01*
X915420Y-1449793D02*
X915420Y-1402174D01*
X915420Y-1402174D02*
X924943Y-1364079D01*
X924943Y-1364079D02*
X934467Y-1345031D01*
X934467Y-1345031D02*
X943991Y-1335508D01*
X943991Y-1335508D02*
X963039Y-1325984D01*
X1115420Y-1525984D02*
X1115420Y-1392650D01*
X1115420Y-1411698D02*
X1124944Y-1402174D01*
X1124944Y-1402174D02*
X1143991Y-1392650D01*
X1143991Y-1392650D02*
X1172563Y-1392650D01*
X1172563Y-1392650D02*
X1191610Y-1402174D01*
X1191610Y-1402174D02*
X1201134Y-1421222D01*
X1201134Y-1421222D02*
X1201134Y-1525984D01*
X1201134Y-1421222D02*
X1210658Y-1402174D01*
X1210658Y-1402174D02*
X1229705Y-1392650D01*
X1229705Y-1392650D02*
X1258277Y-1392650D01*
X1258277Y-1392650D02*
X1277325Y-1402174D01*
X1277325Y-1402174D02*
X1286848Y-1421222D01*
X1286848Y-1421222D02*
X1286848Y-1525984D01*
X1382086Y-1525984D02*
X1382086Y-1392650D01*
X1382086Y-1411698D02*
X1391610Y-1402174D01*
X1391610Y-1402174D02*
X1410658Y-1392650D01*
X1410658Y-1392650D02*
X1439229Y-1392650D01*
X1439229Y-1392650D02*
X1458277Y-1402174D01*
X1458277Y-1402174D02*
X1467801Y-1421222D01*
X1467801Y-1421222D02*
X1467801Y-1525984D01*
X1467801Y-1421222D02*
X1477324Y-1402174D01*
X1477324Y-1402174D02*
X1496372Y-1392650D01*
X1496372Y-1392650D02*
X1524943Y-1392650D01*
X1524943Y-1392650D02*
X1543991Y-1402174D01*
X1543991Y-1402174D02*
X1553515Y-1421222D01*
X1553515Y-1421222D02*
X1553515Y-1525984D01*
X1943991Y-1316460D02*
X1772563Y-1573603D01*
X2201134Y-1325984D02*
X2220182Y-1325984D01*
X2220182Y-1325984D02*
X2239229Y-1335508D01*
X2239229Y-1335508D02*
X2248753Y-1345031D01*
X2248753Y-1345031D02*
X2258277Y-1364079D01*
X2258277Y-1364079D02*
X2267801Y-1402174D01*
X2267801Y-1402174D02*
X2267801Y-1449793D01*
X2267801Y-1449793D02*
X2258277Y-1487888D01*
X2258277Y-1487888D02*
X2248753Y-1506936D01*
X2248753Y-1506936D02*
X2239229Y-1516460D01*
X2239229Y-1516460D02*
X2220182Y-1525984D01*
X2220182Y-1525984D02*
X2201134Y-1525984D01*
X2201134Y-1525984D02*
X2182087Y-1516460D01*
X2182087Y-1516460D02*
X2172563Y-1506936D01*
X2172563Y-1506936D02*
X2163039Y-1487888D01*
X2163039Y-1487888D02*
X2153515Y-1449793D01*
X2153515Y-1449793D02*
X2153515Y-1402174D01*
X2153515Y-1402174D02*
X2163039Y-1364079D01*
X2163039Y-1364079D02*
X2172563Y-1345031D01*
X2172563Y-1345031D02*
X2182087Y-1335508D01*
X2182087Y-1335508D02*
X2201134Y-1325984D01*
X2353515Y-1506936D02*
X2363039Y-1516460D01*
X2363039Y-1516460D02*
X2353515Y-1525984D01*
X2353515Y-1525984D02*
X2343991Y-1516460D01*
X2343991Y-1516460D02*
X2353515Y-1506936D01*
X2353515Y-1506936D02*
X2353515Y-1525984D01*
X2486848Y-1325984D02*
X2505896Y-1325984D01*
X2505896Y-1325984D02*
X2524944Y-1335508D01*
X2524944Y-1335508D02*
X2534468Y-1345031D01*
X2534468Y-1345031D02*
X2543991Y-1364079D01*
X2543991Y-1364079D02*
X2553515Y-1402174D01*
X2553515Y-1402174D02*
X2553515Y-1449793D01*
X2553515Y-1449793D02*
X2543991Y-1487888D01*
X2543991Y-1487888D02*
X2534468Y-1506936D01*
X2534468Y-1506936D02*
X2524944Y-1516460D01*
X2524944Y-1516460D02*
X2505896Y-1525984D01*
X2505896Y-1525984D02*
X2486848Y-1525984D01*
X2486848Y-1525984D02*
X2467801Y-1516460D01*
X2467801Y-1516460D02*
X2458277Y-1506936D01*
X2458277Y-1506936D02*
X2448753Y-1487888D01*
X2448753Y-1487888D02*
X2439229Y-1449793D01*
X2439229Y-1449793D02*
X2439229Y-1402174D01*
X2439229Y-1402174D02*
X2448753Y-1364079D01*
X2448753Y-1364079D02*
X2458277Y-1345031D01*
X2458277Y-1345031D02*
X2467801Y-1335508D01*
X2467801Y-1335508D02*
X2486848Y-1325984D01*
X2667801Y-1411698D02*
X2648753Y-1402174D01*
X2648753Y-1402174D02*
X2639229Y-1392650D01*
X2639229Y-1392650D02*
X2629706Y-1373603D01*
X2629706Y-1373603D02*
X2629706Y-1364079D01*
X2629706Y-1364079D02*
X2639229Y-1345031D01*
X2639229Y-1345031D02*
X2648753Y-1335508D01*
X2648753Y-1335508D02*
X2667801Y-1325984D01*
X2667801Y-1325984D02*
X2705896Y-1325984D01*
X2705896Y-1325984D02*
X2724944Y-1335508D01*
X2724944Y-1335508D02*
X2734468Y-1345031D01*
X2734468Y-1345031D02*
X2743991Y-1364079D01*
X2743991Y-1364079D02*
X2743991Y-1373603D01*
X2743991Y-1373603D02*
X2734468Y-1392650D01*
X2734468Y-1392650D02*
X2724944Y-1402174D01*
X2724944Y-1402174D02*
X2705896Y-1411698D01*
X2705896Y-1411698D02*
X2667801Y-1411698D01*
X2667801Y-1411698D02*
X2648753Y-1421222D01*
X2648753Y-1421222D02*
X2639229Y-1430746D01*
X2639229Y-1430746D02*
X2629706Y-1449793D01*
X2629706Y-1449793D02*
X2629706Y-1487888D01*
X2629706Y-1487888D02*
X2639229Y-1506936D01*
X2639229Y-1506936D02*
X2648753Y-1516460D01*
X2648753Y-1516460D02*
X2667801Y-1525984D01*
X2667801Y-1525984D02*
X2705896Y-1525984D01*
X2705896Y-1525984D02*
X2724944Y-1516460D01*
X2724944Y-1516460D02*
X2734468Y-1506936D01*
X2734468Y-1506936D02*
X2743991Y-1487888D01*
X2743991Y-1487888D02*
X2743991Y-1449793D01*
X2743991Y-1449793D02*
X2734468Y-1430746D01*
X2734468Y-1430746D02*
X2724944Y-1421222D01*
X2724944Y-1421222D02*
X2705896Y-1411698D01*
X2915420Y-1325984D02*
X2877325Y-1325984D01*
X2877325Y-1325984D02*
X2858277Y-1335508D01*
X2858277Y-1335508D02*
X2848753Y-1345031D01*
X2848753Y-1345031D02*
X2829706Y-1373603D01*
X2829706Y-1373603D02*
X2820182Y-1411698D01*
X2820182Y-1411698D02*
X2820182Y-1487888D01*
X2820182Y-1487888D02*
X2829706Y-1506936D01*
X2829706Y-1506936D02*
X2839229Y-1516460D01*
X2839229Y-1516460D02*
X2858277Y-1525984D01*
X2858277Y-1525984D02*
X2896372Y-1525984D01*
X2896372Y-1525984D02*
X2915420Y-1516460D01*
X2915420Y-1516460D02*
X2924944Y-1506936D01*
X2924944Y-1506936D02*
X2934467Y-1487888D01*
X2934467Y-1487888D02*
X2934467Y-1440269D01*
X2934467Y-1440269D02*
X2924944Y-1421222D01*
X2924944Y-1421222D02*
X2915420Y-1411698D01*
X2915420Y-1411698D02*
X2896372Y-1402174D01*
X2896372Y-1402174D02*
X2858277Y-1402174D01*
X2858277Y-1402174D02*
X2839229Y-1411698D01*
X2839229Y-1411698D02*
X2829706Y-1421222D01*
X2829706Y-1421222D02*
X2820182Y-1440269D01*
X3105896Y-1325984D02*
X3067801Y-1325984D01*
X3067801Y-1325984D02*
X3048753Y-1335508D01*
X3048753Y-1335508D02*
X3039229Y-1345031D01*
X3039229Y-1345031D02*
X3020182Y-1373603D01*
X3020182Y-1373603D02*
X3010658Y-1411698D01*
X3010658Y-1411698D02*
X3010658Y-1487888D01*
X3010658Y-1487888D02*
X3020182Y-1506936D01*
X3020182Y-1506936D02*
X3029706Y-1516460D01*
X3029706Y-1516460D02*
X3048753Y-1525984D01*
X3048753Y-1525984D02*
X3086848Y-1525984D01*
X3086848Y-1525984D02*
X3105896Y-1516460D01*
X3105896Y-1516460D02*
X3115420Y-1506936D01*
X3115420Y-1506936D02*
X3124944Y-1487888D01*
X3124944Y-1487888D02*
X3124944Y-1440269D01*
X3124944Y-1440269D02*
X3115420Y-1421222D01*
X3115420Y-1421222D02*
X3105896Y-1411698D01*
X3105896Y-1411698D02*
X3086848Y-1402174D01*
X3086848Y-1402174D02*
X3048753Y-1402174D01*
X3048753Y-1402174D02*
X3029706Y-1411698D01*
X3029706Y-1411698D02*
X3020182Y-1421222D01*
X3020182Y-1421222D02*
X3010658Y-1440269D01*
X3201134Y-1325984D02*
X3201134Y-1364079D01*
X3277325Y-1325984D02*
X3277325Y-1364079D01*
X3572563Y-1602174D02*
X3563039Y-1592650D01*
X3563039Y-1592650D02*
X3543991Y-1564079D01*
X3543991Y-1564079D02*
X3534468Y-1545031D01*
X3534468Y-1545031D02*
X3524944Y-1516460D01*
X3524944Y-1516460D02*
X3515420Y-1468841D01*
X3515420Y-1468841D02*
X3515420Y-1430746D01*
X3515420Y-1430746D02*
X3524944Y-1383127D01*
X3524944Y-1383127D02*
X3534468Y-1354555D01*
X3534468Y-1354555D02*
X3543991Y-1335508D01*
X3543991Y-1335508D02*
X3563039Y-1306936D01*
X3563039Y-1306936D02*
X3572563Y-1297412D01*
X3677325Y-1411698D02*
X3658277Y-1402174D01*
X3658277Y-1402174D02*
X3648753Y-1392650D01*
X3648753Y-1392650D02*
X3639229Y-1373603D01*
X3639229Y-1373603D02*
X3639229Y-1364079D01*
X3639229Y-1364079D02*
X3648753Y-1345031D01*
X3648753Y-1345031D02*
X3658277Y-1335508D01*
X3658277Y-1335508D02*
X3677325Y-1325984D01*
X3677325Y-1325984D02*
X3715420Y-1325984D01*
X3715420Y-1325984D02*
X3734468Y-1335508D01*
X3734468Y-1335508D02*
X3743991Y-1345031D01*
X3743991Y-1345031D02*
X3753515Y-1364079D01*
X3753515Y-1364079D02*
X3753515Y-1373603D01*
X3753515Y-1373603D02*
X3743991Y-1392650D01*
X3743991Y-1392650D02*
X3734468Y-1402174D01*
X3734468Y-1402174D02*
X3715420Y-1411698D01*
X3715420Y-1411698D02*
X3677325Y-1411698D01*
X3677325Y-1411698D02*
X3658277Y-1421222D01*
X3658277Y-1421222D02*
X3648753Y-1430746D01*
X3648753Y-1430746D02*
X3639229Y-1449793D01*
X3639229Y-1449793D02*
X3639229Y-1487888D01*
X3639229Y-1487888D02*
X3648753Y-1506936D01*
X3648753Y-1506936D02*
X3658277Y-1516460D01*
X3658277Y-1516460D02*
X3677325Y-1525984D01*
X3677325Y-1525984D02*
X3715420Y-1525984D01*
X3715420Y-1525984D02*
X3734468Y-1516460D01*
X3734468Y-1516460D02*
X3743991Y-1506936D01*
X3743991Y-1506936D02*
X3753515Y-1487888D01*
X3753515Y-1487888D02*
X3753515Y-1449793D01*
X3753515Y-1449793D02*
X3743991Y-1430746D01*
X3743991Y-1430746D02*
X3734468Y-1421222D01*
X3734468Y-1421222D02*
X3715420Y-1411698D01*
X3991610Y-1525984D02*
X3991610Y-1325984D01*
X4077325Y-1525984D02*
X4077325Y-1421222D01*
X4077325Y-1421222D02*
X4067801Y-1402174D01*
X4067801Y-1402174D02*
X4048753Y-1392650D01*
X4048753Y-1392650D02*
X4020182Y-1392650D01*
X4020182Y-1392650D02*
X4001134Y-1402174D01*
X4001134Y-1402174D02*
X3991610Y-1411698D01*
X4201134Y-1525984D02*
X4182087Y-1516460D01*
X4182087Y-1516460D02*
X4172563Y-1506936D01*
X4172563Y-1506936D02*
X4163039Y-1487888D01*
X4163039Y-1487888D02*
X4163039Y-1430746D01*
X4163039Y-1430746D02*
X4172563Y-1411698D01*
X4172563Y-1411698D02*
X4182087Y-1402174D01*
X4182087Y-1402174D02*
X4201134Y-1392650D01*
X4201134Y-1392650D02*
X4229706Y-1392650D01*
X4229706Y-1392650D02*
X4248753Y-1402174D01*
X4248753Y-1402174D02*
X4258277Y-1411698D01*
X4258277Y-1411698D02*
X4267801Y-1430746D01*
X4267801Y-1430746D02*
X4267801Y-1487888D01*
X4267801Y-1487888D02*
X4258277Y-1506936D01*
X4258277Y-1506936D02*
X4248753Y-1516460D01*
X4248753Y-1516460D02*
X4229706Y-1525984D01*
X4229706Y-1525984D02*
X4201134Y-1525984D01*
X4382087Y-1525984D02*
X4363039Y-1516460D01*
X4363039Y-1516460D02*
X4353515Y-1497412D01*
X4353515Y-1497412D02*
X4353515Y-1325984D01*
X4534468Y-1516460D02*
X4515420Y-1525984D01*
X4515420Y-1525984D02*
X4477325Y-1525984D01*
X4477325Y-1525984D02*
X4458277Y-1516460D01*
X4458277Y-1516460D02*
X4448753Y-1497412D01*
X4448753Y-1497412D02*
X4448753Y-1421222D01*
X4448753Y-1421222D02*
X4458277Y-1402174D01*
X4458277Y-1402174D02*
X4477325Y-1392650D01*
X4477325Y-1392650D02*
X4515420Y-1392650D01*
X4515420Y-1392650D02*
X4534468Y-1402174D01*
X4534468Y-1402174D02*
X4543992Y-1421222D01*
X4543992Y-1421222D02*
X4543992Y-1440269D01*
X4543992Y-1440269D02*
X4448753Y-1459317D01*
X4620182Y-1516460D02*
X4639230Y-1525984D01*
X4639230Y-1525984D02*
X4677325Y-1525984D01*
X4677325Y-1525984D02*
X4696373Y-1516460D01*
X4696373Y-1516460D02*
X4705896Y-1497412D01*
X4705896Y-1497412D02*
X4705896Y-1487888D01*
X4705896Y-1487888D02*
X4696373Y-1468841D01*
X4696373Y-1468841D02*
X4677325Y-1459317D01*
X4677325Y-1459317D02*
X4648753Y-1459317D01*
X4648753Y-1459317D02*
X4629706Y-1449793D01*
X4629706Y-1449793D02*
X4620182Y-1430746D01*
X4620182Y-1430746D02*
X4620182Y-1421222D01*
X4620182Y-1421222D02*
X4629706Y-1402174D01*
X4629706Y-1402174D02*
X4648753Y-1392650D01*
X4648753Y-1392650D02*
X4677325Y-1392650D01*
X4677325Y-1392650D02*
X4696373Y-1402174D01*
X4772563Y-1602174D02*
X4782087Y-1592650D01*
X4782087Y-1592650D02*
X4801134Y-1564079D01*
X4801134Y-1564079D02*
X4810658Y-1545031D01*
X4810658Y-1545031D02*
X4820182Y-1516460D01*
X4820182Y-1516460D02*
X4829706Y-1468841D01*
X4829706Y-1468841D02*
X4829706Y-1430746D01*
X4829706Y-1430746D02*
X4820182Y-1383127D01*
X4820182Y-1383127D02*
X4810658Y-1354555D01*
X4810658Y-1354555D02*
X4801134Y-1335508D01*
X4801134Y-1335508D02*
X4782087Y-1306936D01*
X4782087Y-1306936D02*
X4772563Y-1297412D01*
D14*
X-67500Y-1819500D02*
X-2500Y-1754500D01*
X-67500Y-1689500D01*
X-132500Y-1754500D01*
X-67500Y-1819500D01*
D11*
X363039Y-1845984D02*
X248753Y-1845984D01*
X305896Y-1845984D02*
X305896Y-1645984D01*
X305896Y-1645984D02*
X286848Y-1674555D01*
X286848Y-1674555D02*
X267801Y-1693603D01*
X267801Y-1693603D02*
X248753Y-1703127D01*
X448753Y-1826936D02*
X458277Y-1836460D01*
X458277Y-1836460D02*
X448753Y-1845984D01*
X448753Y-1845984D02*
X439229Y-1836460D01*
X439229Y-1836460D02*
X448753Y-1826936D01*
X448753Y-1826936D02*
X448753Y-1845984D01*
X524944Y-1645984D02*
X648753Y-1645984D01*
X648753Y-1645984D02*
X582086Y-1722174D01*
X582086Y-1722174D02*
X610658Y-1722174D01*
X610658Y-1722174D02*
X629705Y-1731698D01*
X629705Y-1731698D02*
X639229Y-1741222D01*
X639229Y-1741222D02*
X648753Y-1760269D01*
X648753Y-1760269D02*
X648753Y-1807888D01*
X648753Y-1807888D02*
X639229Y-1826936D01*
X639229Y-1826936D02*
X629705Y-1836460D01*
X629705Y-1836460D02*
X610658Y-1845984D01*
X610658Y-1845984D02*
X553515Y-1845984D01*
X553515Y-1845984D02*
X534467Y-1836460D01*
X534467Y-1836460D02*
X524944Y-1826936D01*
X772562Y-1645984D02*
X791610Y-1645984D01*
X791610Y-1645984D02*
X810658Y-1655508D01*
X810658Y-1655508D02*
X820182Y-1665031D01*
X820182Y-1665031D02*
X829705Y-1684079D01*
X829705Y-1684079D02*
X839229Y-1722174D01*
X839229Y-1722174D02*
X839229Y-1769793D01*
X839229Y-1769793D02*
X829705Y-1807888D01*
X829705Y-1807888D02*
X820182Y-1826936D01*
X820182Y-1826936D02*
X810658Y-1836460D01*
X810658Y-1836460D02*
X791610Y-1845984D01*
X791610Y-1845984D02*
X772562Y-1845984D01*
X772562Y-1845984D02*
X753515Y-1836460D01*
X753515Y-1836460D02*
X743991Y-1826936D01*
X743991Y-1826936D02*
X734467Y-1807888D01*
X734467Y-1807888D02*
X724943Y-1769793D01*
X724943Y-1769793D02*
X724943Y-1722174D01*
X724943Y-1722174D02*
X734467Y-1684079D01*
X734467Y-1684079D02*
X743991Y-1665031D01*
X743991Y-1665031D02*
X753515Y-1655508D01*
X753515Y-1655508D02*
X772562Y-1645984D01*
X963039Y-1645984D02*
X982086Y-1645984D01*
X982086Y-1645984D02*
X1001134Y-1655508D01*
X1001134Y-1655508D02*
X1010658Y-1665031D01*
X1010658Y-1665031D02*
X1020182Y-1684079D01*
X1020182Y-1684079D02*
X1029705Y-1722174D01*
X1029705Y-1722174D02*
X1029705Y-1769793D01*
X1029705Y-1769793D02*
X1020182Y-1807888D01*
X1020182Y-1807888D02*
X1010658Y-1826936D01*
X1010658Y-1826936D02*
X1001134Y-1836460D01*
X1001134Y-1836460D02*
X982086Y-1845984D01*
X982086Y-1845984D02*
X963039Y-1845984D01*
X963039Y-1845984D02*
X943991Y-1836460D01*
X943991Y-1836460D02*
X934467Y-1826936D01*
X934467Y-1826936D02*
X924943Y-1807888D01*
X924943Y-1807888D02*
X915420Y-1769793D01*
X915420Y-1769793D02*
X915420Y-1722174D01*
X915420Y-1722174D02*
X924943Y-1684079D01*
X924943Y-1684079D02*
X934467Y-1665031D01*
X934467Y-1665031D02*
X943991Y-1655508D01*
X943991Y-1655508D02*
X963039Y-1645984D01*
X1115420Y-1845984D02*
X1115420Y-1712650D01*
X1115420Y-1731698D02*
X1124944Y-1722174D01*
X1124944Y-1722174D02*
X1143991Y-1712650D01*
X1143991Y-1712650D02*
X1172563Y-1712650D01*
X1172563Y-1712650D02*
X1191610Y-1722174D01*
X1191610Y-1722174D02*
X1201134Y-1741222D01*
X1201134Y-1741222D02*
X1201134Y-1845984D01*
X1201134Y-1741222D02*
X1210658Y-1722174D01*
X1210658Y-1722174D02*
X1229705Y-1712650D01*
X1229705Y-1712650D02*
X1258277Y-1712650D01*
X1258277Y-1712650D02*
X1277325Y-1722174D01*
X1277325Y-1722174D02*
X1286848Y-1741222D01*
X1286848Y-1741222D02*
X1286848Y-1845984D01*
X1382086Y-1845984D02*
X1382086Y-1712650D01*
X1382086Y-1731698D02*
X1391610Y-1722174D01*
X1391610Y-1722174D02*
X1410658Y-1712650D01*
X1410658Y-1712650D02*
X1439229Y-1712650D01*
X1439229Y-1712650D02*
X1458277Y-1722174D01*
X1458277Y-1722174D02*
X1467801Y-1741222D01*
X1467801Y-1741222D02*
X1467801Y-1845984D01*
X1467801Y-1741222D02*
X1477324Y-1722174D01*
X1477324Y-1722174D02*
X1496372Y-1712650D01*
X1496372Y-1712650D02*
X1524943Y-1712650D01*
X1524943Y-1712650D02*
X1543991Y-1722174D01*
X1543991Y-1722174D02*
X1553515Y-1741222D01*
X1553515Y-1741222D02*
X1553515Y-1845984D01*
X1943991Y-1636460D02*
X1772563Y-1893603D01*
X2201134Y-1645984D02*
X2220182Y-1645984D01*
X2220182Y-1645984D02*
X2239229Y-1655508D01*
X2239229Y-1655508D02*
X2248753Y-1665031D01*
X2248753Y-1665031D02*
X2258277Y-1684079D01*
X2258277Y-1684079D02*
X2267801Y-1722174D01*
X2267801Y-1722174D02*
X2267801Y-1769793D01*
X2267801Y-1769793D02*
X2258277Y-1807888D01*
X2258277Y-1807888D02*
X2248753Y-1826936D01*
X2248753Y-1826936D02*
X2239229Y-1836460D01*
X2239229Y-1836460D02*
X2220182Y-1845984D01*
X2220182Y-1845984D02*
X2201134Y-1845984D01*
X2201134Y-1845984D02*
X2182087Y-1836460D01*
X2182087Y-1836460D02*
X2172563Y-1826936D01*
X2172563Y-1826936D02*
X2163039Y-1807888D01*
X2163039Y-1807888D02*
X2153515Y-1769793D01*
X2153515Y-1769793D02*
X2153515Y-1722174D01*
X2153515Y-1722174D02*
X2163039Y-1684079D01*
X2163039Y-1684079D02*
X2172563Y-1665031D01*
X2172563Y-1665031D02*
X2182087Y-1655508D01*
X2182087Y-1655508D02*
X2201134Y-1645984D01*
X2353515Y-1826936D02*
X2363039Y-1836460D01*
X2363039Y-1836460D02*
X2353515Y-1845984D01*
X2353515Y-1845984D02*
X2343991Y-1836460D01*
X2343991Y-1836460D02*
X2353515Y-1826936D01*
X2353515Y-1826936D02*
X2353515Y-1845984D01*
X2486848Y-1645984D02*
X2505896Y-1645984D01*
X2505896Y-1645984D02*
X2524944Y-1655508D01*
X2524944Y-1655508D02*
X2534468Y-1665031D01*
X2534468Y-1665031D02*
X2543991Y-1684079D01*
X2543991Y-1684079D02*
X2553515Y-1722174D01*
X2553515Y-1722174D02*
X2553515Y-1769793D01*
X2553515Y-1769793D02*
X2543991Y-1807888D01*
X2543991Y-1807888D02*
X2534468Y-1826936D01*
X2534468Y-1826936D02*
X2524944Y-1836460D01*
X2524944Y-1836460D02*
X2505896Y-1845984D01*
X2505896Y-1845984D02*
X2486848Y-1845984D01*
X2486848Y-1845984D02*
X2467801Y-1836460D01*
X2467801Y-1836460D02*
X2458277Y-1826936D01*
X2458277Y-1826936D02*
X2448753Y-1807888D01*
X2448753Y-1807888D02*
X2439229Y-1769793D01*
X2439229Y-1769793D02*
X2439229Y-1722174D01*
X2439229Y-1722174D02*
X2448753Y-1684079D01*
X2448753Y-1684079D02*
X2458277Y-1665031D01*
X2458277Y-1665031D02*
X2467801Y-1655508D01*
X2467801Y-1655508D02*
X2486848Y-1645984D01*
X2734468Y-1645984D02*
X2639229Y-1645984D01*
X2639229Y-1645984D02*
X2629706Y-1741222D01*
X2629706Y-1741222D02*
X2639229Y-1731698D01*
X2639229Y-1731698D02*
X2658277Y-1722174D01*
X2658277Y-1722174D02*
X2705896Y-1722174D01*
X2705896Y-1722174D02*
X2724944Y-1731698D01*
X2724944Y-1731698D02*
X2734468Y-1741222D01*
X2734468Y-1741222D02*
X2743991Y-1760269D01*
X2743991Y-1760269D02*
X2743991Y-1807888D01*
X2743991Y-1807888D02*
X2734468Y-1826936D01*
X2734468Y-1826936D02*
X2724944Y-1836460D01*
X2724944Y-1836460D02*
X2705896Y-1845984D01*
X2705896Y-1845984D02*
X2658277Y-1845984D01*
X2658277Y-1845984D02*
X2639229Y-1836460D01*
X2639229Y-1836460D02*
X2629706Y-1826936D01*
X2934467Y-1845984D02*
X2820182Y-1845984D01*
X2877325Y-1845984D02*
X2877325Y-1645984D01*
X2877325Y-1645984D02*
X2858277Y-1674555D01*
X2858277Y-1674555D02*
X2839229Y-1693603D01*
X2839229Y-1693603D02*
X2820182Y-1703127D01*
X3010658Y-1665031D02*
X3020182Y-1655508D01*
X3020182Y-1655508D02*
X3039229Y-1645984D01*
X3039229Y-1645984D02*
X3086848Y-1645984D01*
X3086848Y-1645984D02*
X3105896Y-1655508D01*
X3105896Y-1655508D02*
X3115420Y-1665031D01*
X3115420Y-1665031D02*
X3124944Y-1684079D01*
X3124944Y-1684079D02*
X3124944Y-1703127D01*
X3124944Y-1703127D02*
X3115420Y-1731698D01*
X3115420Y-1731698D02*
X3001134Y-1845984D01*
X3001134Y-1845984D02*
X3124944Y-1845984D01*
X3201134Y-1645984D02*
X3201134Y-1684079D01*
X3277325Y-1645984D02*
X3277325Y-1684079D01*
X3572563Y-1922174D02*
X3563039Y-1912650D01*
X3563039Y-1912650D02*
X3543991Y-1884079D01*
X3543991Y-1884079D02*
X3534468Y-1865031D01*
X3534468Y-1865031D02*
X3524944Y-1836460D01*
X3524944Y-1836460D02*
X3515420Y-1788841D01*
X3515420Y-1788841D02*
X3515420Y-1750746D01*
X3515420Y-1750746D02*
X3524944Y-1703127D01*
X3524944Y-1703127D02*
X3534468Y-1674555D01*
X3534468Y-1674555D02*
X3543991Y-1655508D01*
X3543991Y-1655508D02*
X3563039Y-1626936D01*
X3563039Y-1626936D02*
X3572563Y-1617412D01*
X3734468Y-1712650D02*
X3734468Y-1845984D01*
X3686848Y-1636460D02*
X3639229Y-1779317D01*
X3639229Y-1779317D02*
X3763039Y-1779317D01*
X3991610Y-1845984D02*
X3991610Y-1645984D01*
X4077325Y-1845984D02*
X4077325Y-1741222D01*
X4077325Y-1741222D02*
X4067801Y-1722174D01*
X4067801Y-1722174D02*
X4048753Y-1712650D01*
X4048753Y-1712650D02*
X4020182Y-1712650D01*
X4020182Y-1712650D02*
X4001134Y-1722174D01*
X4001134Y-1722174D02*
X3991610Y-1731698D01*
X4201134Y-1845984D02*
X4182087Y-1836460D01*
X4182087Y-1836460D02*
X4172563Y-1826936D01*
X4172563Y-1826936D02*
X4163039Y-1807888D01*
X4163039Y-1807888D02*
X4163039Y-1750746D01*
X4163039Y-1750746D02*
X4172563Y-1731698D01*
X4172563Y-1731698D02*
X4182087Y-1722174D01*
X4182087Y-1722174D02*
X4201134Y-1712650D01*
X4201134Y-1712650D02*
X4229706Y-1712650D01*
X4229706Y-1712650D02*
X4248753Y-1722174D01*
X4248753Y-1722174D02*
X4258277Y-1731698D01*
X4258277Y-1731698D02*
X4267801Y-1750746D01*
X4267801Y-1750746D02*
X4267801Y-1807888D01*
X4267801Y-1807888D02*
X4258277Y-1826936D01*
X4258277Y-1826936D02*
X4248753Y-1836460D01*
X4248753Y-1836460D02*
X4229706Y-1845984D01*
X4229706Y-1845984D02*
X4201134Y-1845984D01*
X4382087Y-1845984D02*
X4363039Y-1836460D01*
X4363039Y-1836460D02*
X4353515Y-1817412D01*
X4353515Y-1817412D02*
X4353515Y-1645984D01*
X4534468Y-1836460D02*
X4515420Y-1845984D01*
X4515420Y-1845984D02*
X4477325Y-1845984D01*
X4477325Y-1845984D02*
X4458277Y-1836460D01*
X4458277Y-1836460D02*
X4448753Y-1817412D01*
X4448753Y-1817412D02*
X4448753Y-1741222D01*
X4448753Y-1741222D02*
X4458277Y-1722174D01*
X4458277Y-1722174D02*
X4477325Y-1712650D01*
X4477325Y-1712650D02*
X4515420Y-1712650D01*
X4515420Y-1712650D02*
X4534468Y-1722174D01*
X4534468Y-1722174D02*
X4543992Y-1741222D01*
X4543992Y-1741222D02*
X4543992Y-1760269D01*
X4543992Y-1760269D02*
X4448753Y-1779317D01*
X4620182Y-1836460D02*
X4639230Y-1845984D01*
X4639230Y-1845984D02*
X4677325Y-1845984D01*
X4677325Y-1845984D02*
X4696373Y-1836460D01*
X4696373Y-1836460D02*
X4705896Y-1817412D01*
X4705896Y-1817412D02*
X4705896Y-1807888D01*
X4705896Y-1807888D02*
X4696373Y-1788841D01*
X4696373Y-1788841D02*
X4677325Y-1779317D01*
X4677325Y-1779317D02*
X4648753Y-1779317D01*
X4648753Y-1779317D02*
X4629706Y-1769793D01*
X4629706Y-1769793D02*
X4620182Y-1750746D01*
X4620182Y-1750746D02*
X4620182Y-1741222D01*
X4620182Y-1741222D02*
X4629706Y-1722174D01*
X4629706Y-1722174D02*
X4648753Y-1712650D01*
X4648753Y-1712650D02*
X4677325Y-1712650D01*
X4677325Y-1712650D02*
X4696373Y-1722174D01*
X4772563Y-1922174D02*
X4782087Y-1912650D01*
X4782087Y-1912650D02*
X4801134Y-1884079D01*
X4801134Y-1884079D02*
X4810658Y-1865031D01*
X4810658Y-1865031D02*
X4820182Y-1836460D01*
X4820182Y-1836460D02*
X4829706Y-1788841D01*
X4829706Y-1788841D02*
X4829706Y-1750746D01*
X4829706Y-1750746D02*
X4820182Y-1703127D01*
X4820182Y-1703127D02*
X4810658Y-1674555D01*
X4810658Y-1674555D02*
X4801134Y-1655508D01*
X4801134Y-1655508D02*
X4782087Y-1626936D01*
X4782087Y-1626936D02*
X4772563Y-1617412D01*
X5134468Y-1922174D02*
X5124944Y-1912650D01*
X5124944Y-1912650D02*
X5105896Y-1884079D01*
X5105896Y-1884079D02*
X5096373Y-1865031D01*
X5096373Y-1865031D02*
X5086849Y-1836460D01*
X5086849Y-1836460D02*
X5077325Y-1788841D01*
X5077325Y-1788841D02*
X5077325Y-1750746D01*
X5077325Y-1750746D02*
X5086849Y-1703127D01*
X5086849Y-1703127D02*
X5096373Y-1674555D01*
X5096373Y-1674555D02*
X5105896Y-1655508D01*
X5105896Y-1655508D02*
X5124944Y-1626936D01*
X5124944Y-1626936D02*
X5134468Y-1617412D01*
X5210658Y-1712650D02*
X5210658Y-1845984D01*
X5210658Y-1731698D02*
X5220182Y-1722174D01*
X5220182Y-1722174D02*
X5239230Y-1712650D01*
X5239230Y-1712650D02*
X5267801Y-1712650D01*
X5267801Y-1712650D02*
X5286849Y-1722174D01*
X5286849Y-1722174D02*
X5296373Y-1741222D01*
X5296373Y-1741222D02*
X5296373Y-1845984D01*
X5420182Y-1845984D02*
X5401134Y-1836460D01*
X5401134Y-1836460D02*
X5391611Y-1826936D01*
X5391611Y-1826936D02*
X5382087Y-1807888D01*
X5382087Y-1807888D02*
X5382087Y-1750746D01*
X5382087Y-1750746D02*
X5391611Y-1731698D01*
X5391611Y-1731698D02*
X5401134Y-1722174D01*
X5401134Y-1722174D02*
X5420182Y-1712650D01*
X5420182Y-1712650D02*
X5448754Y-1712650D01*
X5448754Y-1712650D02*
X5467801Y-1722174D01*
X5467801Y-1722174D02*
X5477325Y-1731698D01*
X5477325Y-1731698D02*
X5486849Y-1750746D01*
X5486849Y-1750746D02*
X5486849Y-1807888D01*
X5486849Y-1807888D02*
X5477325Y-1826936D01*
X5477325Y-1826936D02*
X5467801Y-1836460D01*
X5467801Y-1836460D02*
X5448754Y-1845984D01*
X5448754Y-1845984D02*
X5420182Y-1845984D01*
X5543992Y-1712650D02*
X5620182Y-1712650D01*
X5572563Y-1645984D02*
X5572563Y-1817412D01*
X5572563Y-1817412D02*
X5582087Y-1836460D01*
X5582087Y-1836460D02*
X5601134Y-1845984D01*
X5601134Y-1845984D02*
X5620182Y-1845984D01*
X5839230Y-1712650D02*
X5839230Y-1912650D01*
X5839230Y-1722174D02*
X5858277Y-1712650D01*
X5858277Y-1712650D02*
X5896373Y-1712650D01*
X5896373Y-1712650D02*
X5915420Y-1722174D01*
X5915420Y-1722174D02*
X5924944Y-1731698D01*
X5924944Y-1731698D02*
X5934468Y-1750746D01*
X5934468Y-1750746D02*
X5934468Y-1807888D01*
X5934468Y-1807888D02*
X5924944Y-1826936D01*
X5924944Y-1826936D02*
X5915420Y-1836460D01*
X5915420Y-1836460D02*
X5896373Y-1845984D01*
X5896373Y-1845984D02*
X5858277Y-1845984D01*
X5858277Y-1845984D02*
X5839230Y-1836460D01*
X6048753Y-1845984D02*
X6029706Y-1836460D01*
X6029706Y-1836460D02*
X6020182Y-1817412D01*
X6020182Y-1817412D02*
X6020182Y-1645984D01*
X6210658Y-1845984D02*
X6210658Y-1741222D01*
X6210658Y-1741222D02*
X6201134Y-1722174D01*
X6201134Y-1722174D02*
X6182087Y-1712650D01*
X6182087Y-1712650D02*
X6143992Y-1712650D01*
X6143992Y-1712650D02*
X6124944Y-1722174D01*
X6210658Y-1836460D02*
X6191611Y-1845984D01*
X6191611Y-1845984D02*
X6143992Y-1845984D01*
X6143992Y-1845984D02*
X6124944Y-1836460D01*
X6124944Y-1836460D02*
X6115420Y-1817412D01*
X6115420Y-1817412D02*
X6115420Y-1798365D01*
X6115420Y-1798365D02*
X6124944Y-1779317D01*
X6124944Y-1779317D02*
X6143992Y-1769793D01*
X6143992Y-1769793D02*
X6191611Y-1769793D01*
X6191611Y-1769793D02*
X6210658Y-1760269D01*
X6277325Y-1712650D02*
X6353515Y-1712650D01*
X6305896Y-1645984D02*
X6305896Y-1817412D01*
X6305896Y-1817412D02*
X6315420Y-1836460D01*
X6315420Y-1836460D02*
X6334468Y-1845984D01*
X6334468Y-1845984D02*
X6353515Y-1845984D01*
X6496373Y-1836460D02*
X6477325Y-1845984D01*
X6477325Y-1845984D02*
X6439230Y-1845984D01*
X6439230Y-1845984D02*
X6420182Y-1836460D01*
X6420182Y-1836460D02*
X6410658Y-1817412D01*
X6410658Y-1817412D02*
X6410658Y-1741222D01*
X6410658Y-1741222D02*
X6420182Y-1722174D01*
X6420182Y-1722174D02*
X6439230Y-1712650D01*
X6439230Y-1712650D02*
X6477325Y-1712650D01*
X6477325Y-1712650D02*
X6496373Y-1722174D01*
X6496373Y-1722174D02*
X6505896Y-1741222D01*
X6505896Y-1741222D02*
X6505896Y-1760269D01*
X6505896Y-1760269D02*
X6410658Y-1779317D01*
X6677325Y-1845984D02*
X6677325Y-1645984D01*
X6677325Y-1836460D02*
X6658277Y-1845984D01*
X6658277Y-1845984D02*
X6620182Y-1845984D01*
X6620182Y-1845984D02*
X6601134Y-1836460D01*
X6601134Y-1836460D02*
X6591611Y-1826936D01*
X6591611Y-1826936D02*
X6582087Y-1807888D01*
X6582087Y-1807888D02*
X6582087Y-1750746D01*
X6582087Y-1750746D02*
X6591611Y-1731698D01*
X6591611Y-1731698D02*
X6601134Y-1722174D01*
X6601134Y-1722174D02*
X6620182Y-1712650D01*
X6620182Y-1712650D02*
X6658277Y-1712650D01*
X6658277Y-1712650D02*
X6677325Y-1722174D01*
X6753515Y-1922174D02*
X6763039Y-1912650D01*
X6763039Y-1912650D02*
X6782087Y-1884079D01*
X6782087Y-1884079D02*
X6791611Y-1865031D01*
X6791611Y-1865031D02*
X6801134Y-1836460D01*
X6801134Y-1836460D02*
X6810658Y-1788841D01*
X6810658Y-1788841D02*
X6810658Y-1750746D01*
X6810658Y-1750746D02*
X6801134Y-1703127D01*
X6801134Y-1703127D02*
X6791611Y-1674555D01*
X6791611Y-1674555D02*
X6782087Y-1655508D01*
X6782087Y-1655508D02*
X6763039Y-1626936D01*
X6763039Y-1626936D02*
X6753515Y-1617412D01*
M02*
